<svg id="Layer_1" data-name="Layer 1" xmlns="http://www.w3.org/2000/svg" viewBox="0 0 163.8072 87.3158"><defs><style>.cls-1{fill:#fff;stroke:#231f20;stroke-miterlimit:10;}</style></defs><title>step0</title><rect class="cls-1" x="0.5" y="0.5" width="162.8072" height="86.3158"/><path d="M899.06,479.8324a2.2928,2.2928,0,0,0-.5088-.5737,2.3757,2.3757,0,0,0-1.4961-.523,2.658,2.658,0,0,0-1.3076.2979,2.4746,2.4746,0,0,0-.8721.7988,3.5015,3.5015,0,0,0-.4863,1.1406,5.6584,5.6584,0,0,0-.1529,1.3223,5.2607,5.2607,0,0,0,.1529,1.271,3.4324,3.4324,0,0,0,.4863,1.1118,2.4962,2.4962,0,0,0,.8721.7915,2.6591,2.6591,0,0,0,1.3076.2979,2.11,2.11,0,0,0,1.6343-.6392,2.9563,2.9563,0,0,0,.7192-1.6855h2.2085a5.2709,5.2709,0,0,1-.4507,1.7583,4.2086,4.2086,0,0,1-.9585,1.3364,4.0824,4.0824,0,0,1-1.395.8428,5.1077,5.1077,0,0,1-1.7578.2905,5.3213,5.3213,0,0,1-2.1431-.4141,4.5875,4.5875,0,0,1-1.6054-1.1406,5.04,5.04,0,0,1-1.0025-1.707,6.2664,6.2664,0,0,1-.3486-2.1138,6.4847,6.4847,0,0,1,.3486-2.1577,5.1845,5.1845,0,0,1,1.0025-1.7364,4.5917,4.5917,0,0,1,1.6054-1.1621,5.5619,5.5619,0,0,1,3.7627-.1743,4.375,4.375,0,0,1,1.3657.7193,3.8933,3.8933,0,0,1,.9956,1.1694,4.1855,4.1855,0,0,1,.4937,1.5981h-2.2085A1.8705,1.8705,0,0,0,899.06,479.8324Z" transform="translate(-859.4999 -457.3646)"/><path d="M905.1623,485.6366a2.114,2.114,0,0,0,2.4116.1382,1.2985,1.2985,0,0,0,.5523-.6611h1.8159a3.4487,3.4487,0,0,1-1.3369,1.9326,3.9358,3.9358,0,0,1-2.1792.581,4.2974,4.2974,0,0,1-1.5981-.2832,3.3212,3.3212,0,0,1-1.2056-.8066,3.6263,3.6263,0,0,1-.7632-1.25,4.572,4.572,0,0,1-.2686-1.5982,4.3788,4.3788,0,0,1,.2759-1.5688,3.6312,3.6312,0,0,1,1.9981-2.0923,3.8839,3.8839,0,0,1,1.5615-.3052,3.5709,3.5709,0,0,1,1.6709.3706,3.3347,3.3347,0,0,1,1.1694.9951,4.0915,4.0915,0,0,1,.6612,1.4239,5.3078,5.3078,0,0,1,.1455,1.6709h-5.4195A2.0825,2.0825,0,0,0,905.1623,485.6366Zm2.3316-3.9517a1.45,1.45,0,0,0-1.126-.4067,1.7959,1.7959,0,0,0-.8208.167,1.5651,1.5651,0,0,0-.523.4141,1.5118,1.5118,0,0,0-.2758.5229,2.3434,2.3434,0,0,0-.0948.4941H908.01A2.3894,2.3894,0,0,0,907.4939,481.6849Z" transform="translate(-859.4999 -457.3646)"/><path d="M913.4143,477.0648v10.3736h-2.063V477.0648Z" transform="translate(-859.4999 -457.3646)"/><path d="M917.1628,477.0648v10.3736H915.1V477.0648Z" transform="translate(-859.4999 -457.3646)"/><path d="M920.7517,484.8812a1.6407,1.6407,0,0,0,.501.5884,2.1682,2.1682,0,0,0,.7338.3345,3.4862,3.4862,0,0,0,.8716.1089,4.57,4.57,0,0,0,.6538-.0508,2.2863,2.2863,0,0,0,.6538-.1963,1.4247,1.4247,0,0,0,.5088-.3994,1.0046,1.0046,0,0,0,.2032-.6465.9116.9116,0,0,0-.2686-.6831,2.138,2.138,0,0,0-.7046-.436,7.0067,7.0067,0,0,0-.9883-.3047q-.5522-.1311-1.1186-.291a9.8582,9.8582,0,0,1-1.1333-.356,3.8827,3.8827,0,0,1-.9878-.5444,2.568,2.568,0,0,1-.7046-.8355,2.5325,2.5325,0,0,1-.269-1.2134,2.7149,2.7149,0,0,1,.3413-1.3872,3.0909,3.0909,0,0,1,.8935-.9809,3.903,3.903,0,0,1,1.25-.5811,5.3168,5.3168,0,0,1,1.395-.1889,6.5941,6.5941,0,0,1,1.5616.1816,3.9018,3.9018,0,0,1,1.33.5884,2.9859,2.9859,0,0,1,.9228,1.039,3.19,3.19,0,0,1,.3413,1.5327H924.529a1.8346,1.8346,0,0,0-.1963-.77,1.2839,1.2839,0,0,0-.4428-.4795,1.8742,1.8742,0,0,0-.6324-.247,3.8887,3.8887,0,0,0-.7768-.0728,2.6779,2.6779,0,0,0-.5523.0581,1.493,1.493,0,0,0-.5014.2036,1.2559,1.2559,0,0,0-.37.3633.9713.9713,0,0,0-.1456.5518.9305.9305,0,0,0,.1163.4941,1.0359,1.0359,0,0,0,.4575.3486,5.7955,5.7955,0,0,0,.9443.32q.6029.16,1.5767.4067.29.0579.8061.2105a3.8818,3.8818,0,0,1,1.0244.4868,3.1049,3.1049,0,0,1,.8789.8935,2.5433,2.5433,0,0,1,.3707,1.4312,3.1766,3.1766,0,0,1-.2759,1.3222,2.8783,2.8783,0,0,1-.8213,1.0533,3.9452,3.9452,0,0,1-1.3511.69,6.39,6.39,0,0,1-1.8667.2471,6.5635,6.5635,0,0,1-1.6636-.21,4.1855,4.1855,0,0,1-1.4238-.6611,3.2622,3.2622,0,0,1-.9809-1.148,3.4248,3.4248,0,0,1-.3487-1.6562h2.2085A1.9,1.9,0,0,0,920.7517,484.8812Z" transform="translate(-859.4999 -457.3646)"/><path d="M928.2771,478.7645v-1.7h2.063v1.7Zm2.063,1.1626v7.5113h-2.063v-7.5113Z" transform="translate(-859.4999 -457.3646)"/><path d="M933.9724,479.9271v1.0171h.0288a2.935,2.935,0,0,1,.9809-.9009,2.658,2.658,0,0,1,1.315-.32,3.0323,3.0323,0,0,1,1.3.2759,1.8293,1.8293,0,0,1,.8935.9736,3.203,3.203,0,0,1,.9078-.8716,2.4146,2.4146,0,0,1,1.3588-.3779,4.0128,4.0128,0,0,1,1.104.1455,2.2218,2.2218,0,0,1,.8711.4649,2.1314,2.1314,0,0,1,.5674.8354,3.4044,3.4044,0,0,1,.2031,1.2422v5.0269H941.44v-4.2569q0-.3779-.0289-.7119a1.5085,1.5085,0,0,0-.16-.581.968.968,0,0,0-.3848-.3926,1.3969,1.3969,0,0,0-.69-.145,1.3206,1.3206,0,0,0-.7046.1669,1.2171,1.2171,0,0,0-.4214.4356,1.75,1.75,0,0,0-.2031.61,4.6434,4.6434,0,0,0-.0508.69v4.1841h-2.0635V483.225q0-.3341-.0141-.6612a1.8564,1.8564,0,0,0-.1236-.603.93.93,0,0,0-.3632-.4429,1.3717,1.3717,0,0,0-.7486-.1669,1.5247,1.5247,0,0,0-.3847.0654,1.28,1.28,0,0,0-.4649.2466,1.4445,1.4445,0,0,0-.3852.5234,2.1227,2.1227,0,0,0-.16.8931v4.3589h-2.063v-7.5113Z" transform="translate(-859.4999 -457.3646)"/><path d="M950.2151,487.4384v-1.0459h-.043a2.3235,2.3235,0,0,1-1.0176.9443,3.0049,3.0049,0,0,1-1.2783.2905,3.6047,3.6047,0,0,1-1.3584-.2182,1.9626,1.9626,0,0,1-.8359-.6172,2.4142,2.4142,0,0,1-.4278-.9737,6.0039,6.0039,0,0,1-.124-1.271v-4.62h2.0635v4.2422a2.6375,2.6375,0,0,0,.29,1.3877,1.1269,1.1269,0,0,0,1.0322.4575,1.428,1.428,0,0,0,1.22-.5014,2.7844,2.7844,0,0,0,.3779-1.649v-3.937h2.0635v7.5113Z" transform="translate(-859.4999 -457.3646)"/><path d="M955.8664,477.0648v10.3736h-2.0625V477.0648Z" transform="translate(-859.4999 -457.3646)"/><path d="M957.4065,482.2372a2.4031,2.4031,0,0,1,.3632-1.2061,2.4734,2.4734,0,0,1,.8135-.77,3.5582,3.5582,0,0,1,1.1123-.4141,6.3368,6.3368,0,0,1,1.2422-.1235,8.4381,8.4381,0,0,1,1.1475.08,3.5079,3.5079,0,0,1,1.0605.312,2.089,2.089,0,0,1,.7842.647,1.8013,1.8013,0,0,1,.3057,1.0967v3.9082a7.9791,7.9791,0,0,0,.0576.9736,1.7468,1.7468,0,0,0,.2041.6973h-2.0928a2.7567,2.7567,0,0,1-.0937-.356,3.0661,3.0661,0,0,1-.0518-.3706,2.68,2.68,0,0,1-1.1621.7119,4.6549,4.6549,0,0,1-1.3652.2036,3.6879,3.6879,0,0,1-1.003-.1308,2.3007,2.3007,0,0,1-.8134-.4068,1.8966,1.8966,0,0,1-.545-.6972,2.3577,2.3577,0,0,1-.1963-1.0025,2.189,2.189,0,0,1,.2256-1.0537,1.89,1.89,0,0,1,.5811-.6611,2.6006,2.6006,0,0,1,.8135-.37,8.7123,8.7123,0,0,1,.9228-.1963c.31-.0484.6152-.0874.915-.1162a5.5429,5.5429,0,0,0,.7989-.1309,1.3912,1.3912,0,0,0,.5527-.2544.5558.5558,0,0,0,.1885-.4863,1.0983,1.0983,0,0,0-.1084-.53.8075.8075,0,0,0-.291-.3052,1.1475,1.1475,0,0,0-.4209-.1455,3.5017,3.5017,0,0,0-.5166-.0361,1.5642,1.5642,0,0,0-.958.2612,1.1661,1.1661,0,0,0-.4073.8721Zm4.7656,1.5254a.9186.9186,0,0,1-.3272.1816,3.25,3.25,0,0,1-.4209.1089c-.15.0293-.3076.0532-.4726.0728s-.3291.0434-.4932.0727a3.7052,3.7052,0,0,0-.458.1162,1.3588,1.3588,0,0,0-.3926.1958.9342.9342,0,0,0-.2685.3125,1.01,1.01,0,0,0-.1016.4795.9738.9738,0,0,0,.1016.4649.7779.7779,0,0,0,.2763.2978,1.17,1.17,0,0,0,.4063.1528,2.6178,2.6178,0,0,0,.48.0435,1.8209,1.8209,0,0,0,.9443-.2036,1.3591,1.3591,0,0,0,.4942-.4868,1.5609,1.5609,0,0,0,.1963-.5738,3.8869,3.8869,0,0,0,.0361-.4648Z" transform="translate(-859.4999 -457.3646)"/><path d="M969.9592,479.9271v1.38h-1.5107v3.72a.6989.6989,0,0,0,.872.8716q.1743,0,.334-.0146a2.7511,2.7511,0,0,0,.3047-.0435v1.5982a4.874,4.874,0,0,1-.5811.0581q-.3192.0145-.624.0146a6.0375,6.0375,0,0,1-.9082-.0654,2.1357,2.1357,0,0,1-.7558-.2544,1.345,1.345,0,0,1-.5157-.5376,1.9187,1.9187,0,0,1-.1894-.915V481.307h-1.249v-1.38h1.249v-2.2519h2.0635v2.2519Z" transform="translate(-859.4999 -457.3646)"/><path d="M971.0051,478.7645v-1.7h2.0635v1.7Zm2.0635,1.1626v7.5113h-2.0635v-7.5113Z" transform="translate(-859.4999 -457.3646)"/><path d="M974.74,482.0555a3.4338,3.4338,0,0,1,2.0049-2.0488,4.2947,4.2947,0,0,1,1.5976-.2832,4.3555,4.3555,0,0,1,1.6055.2832,3.4187,3.4187,0,0,1,2.0127,2.0488,4.62,4.62,0,0,1,.2763,1.6343,4.5626,4.5626,0,0,1-.2763,1.6275,3.5382,3.5382,0,0,1-.7842,1.2422,3.4246,3.4246,0,0,1-1.2285.7915,4.45,4.45,0,0,1-1.6055.2763,4.3883,4.3883,0,0,1-1.5976-.2763,3.426,3.426,0,0,1-1.2207-.7915,3.524,3.524,0,0,1-.7842-1.2422,4.5406,4.5406,0,0,1-.2764-1.6275A4.5976,4.5976,0,0,1,974.74,482.0555Zm1.874,2.5132a2.3177,2.3177,0,0,0,.2978.77,1.5835,1.5835,0,0,0,.56.545,1.7041,1.7041,0,0,0,.8711.2036,1.7471,1.7471,0,0,0,.8789-.2036,1.5658,1.5658,0,0,0,.5674-.545,2.3616,2.3616,0,0,0,.2979-.77,4.4314,4.4314,0,0,0,.0869-.8789,4.55,4.55,0,0,0-.0869-.8862,2.2919,2.2919,0,0,0-.2979-.77,1.6581,1.6581,0,0,0-.5674-.5449,1.7019,1.7019,0,0,0-.8789-.21,1.66,1.66,0,0,0-.8711.21,1.679,1.679,0,0,0-.56.5449,2.2505,2.2505,0,0,0-.2978.77,4.4735,4.4735,0,0,0-.0869.8862A4.358,4.358,0,0,0,976.6135,484.5687Z" transform="translate(-859.4999 -457.3646)"/><path d="M985.5344,479.9271v1.0459h.043a2.3664,2.3664,0,0,1,1.0175-.9516,2.9438,2.9438,0,0,1,1.2784-.2979,3.51,3.51,0,0,1,1.3584.2251,2.0113,2.0113,0,0,1,.8349.625,2.4055,2.4055,0,0,1,.4287.9732,6.0712,6.0712,0,0,1,.1241,1.2714v4.62h-2.0635v-4.2422a2.6364,2.6364,0,0,0-.29-1.3877,1.1268,1.1268,0,0,0-1.0322-.4575,1.4275,1.4275,0,0,0-1.22.5009,2.7868,2.7868,0,0,0-.3779,1.649v3.9375h-2.0635v-7.5113Z" transform="translate(-859.4999 -457.3646)"/><path d="M909.4265,517.3387a1.8151,1.8151,0,0,0,.16.7774,1.5882,1.5882,0,0,0,.436.5664,2.0572,2.0572,0,0,0,.6245.3486,2.1652,2.1652,0,0,0,.7266.1231,2.3534,2.3534,0,0,0,1.3657-.37,2.1819,2.1819,0,0,0,.7988-1.0674h1.2354a3.2515,3.2515,0,0,1-.4654,1.0967,2.9658,2.9658,0,0,1-.77.7841,3.3885,3.3885,0,0,1-1.0024.4727,4.1648,4.1648,0,0,1-1.1621.1592,3.7028,3.7028,0,0,1-1.5474-.2832,2.6785,2.6785,0,0,1-.9805-.7266,2.5962,2.5962,0,0,1-.5088-.9726,3.8845,3.8845,0,0,1-.145-1.0245,5.9251,5.9251,0,0,1,.312-1.9687,4.9279,4.9279,0,0,1,.8428-1.5332,3.7664,3.7664,0,0,1,1.2349-.9873,3.2848,3.2848,0,0,1,1.4746-.3487,3.0552,3.0552,0,0,1,2.4194.8711,3.6116,3.6116,0,0,1,.7627,2.4551,3.3373,3.3373,0,0,1-.0439.5528c-.0288.1738-.0533.3144-.0723.4209H909.47A4.8106,4.8106,0,0,0,909.4265,517.3387Zm4.5254-2.52a1.804,1.804,0,0,0-.2906-.6836,1.5447,1.5447,0,0,0-.559-.4794,1.8408,1.8408,0,0,0-.8575-.1817,2.666,2.666,0,0,0-.9663.167,2.4149,2.4149,0,0,0-.748.458,2.7291,2.7291,0,0,0-.5376.6758,4.0246,4.0246,0,0,0-.3486.82h4.3588A2.7987,2.7987,0,0,0,913.9519,514.8182Z" transform="translate(-859.4999 -457.3646)"/><path d="M917.5334,520.07l-1.0752-7.5117h1.3076l.6392,6.247h.0288l3.2549-6.247h1.3364l-4.17,7.5117Z" transform="translate(-859.4999 -457.3646)"/><path d="M924.2165,517.3387a1.8151,1.8151,0,0,0,.16.7774,1.5882,1.5882,0,0,0,.436.5664,2.0572,2.0572,0,0,0,.6245.3486,2.1657,2.1657,0,0,0,.7266.1231,2.3534,2.3534,0,0,0,1.3657-.37,2.1827,2.1827,0,0,0,.7989-1.0674h1.2353a3.2533,3.2533,0,0,1-.4653,1.0967,2.9673,2.9673,0,0,1-.77.7841,3.3879,3.3879,0,0,1-1.0025.4727,4.1648,4.1648,0,0,1-1.1621.1592,3.7035,3.7035,0,0,1-1.5474-.2832,2.6781,2.6781,0,0,1-.98-.7266,2.5948,2.5948,0,0,1-.5088-.9726,3.88,3.88,0,0,1-.145-1.0245,5.9251,5.9251,0,0,1,.312-1.9687,4.9277,4.9277,0,0,1,.8427-1.5332,3.7684,3.7684,0,0,1,1.2349-.9873,3.2848,3.2848,0,0,1,1.4746-.3487,3.0554,3.0554,0,0,1,2.4195.8711,3.6116,3.6116,0,0,1,.7626,2.4551,3.3373,3.3373,0,0,1-.0439.5528c-.0288.1738-.0532.3144-.0723.4209H924.26A4.8106,4.8106,0,0,0,924.2165,517.3387Zm4.5254-2.52a1.8054,1.8054,0,0,0-.29-.6836,1.5459,1.5459,0,0,0-.5591-.4794,1.84,1.84,0,0,0-.8574-.1817,2.6656,2.6656,0,0,0-.9663.167,2.4143,2.4143,0,0,0-.7481.458,2.7291,2.7291,0,0,0-.5376.6758,4.0246,4.0246,0,0,0-.3486.82h4.3589A2.8026,2.8026,0,0,0,928.7419,514.8182Z" transform="translate(-859.4999 -457.3646)"/><path d="M933.2966,512.5585l-.3633,1.6123h.0293a4.131,4.131,0,0,1,1.1113-1.2783,2.6166,2.6166,0,0,1,1.62-.5079,1.5264,1.5264,0,0,0,.2177-.0146.56.56,0,0,1,.2178.0146l-.29,1.3213a.9419.9419,0,0,0-.189-.0136h-.1743c-.1548,0-.2808.0019-.3774.0068a1.794,1.794,0,0,0-.3633.0654,2.3856,2.3856,0,0,0-.9082.45,3.1735,3.1735,0,0,0-.69.77,3.0542,3.0542,0,0,0-.3925.85q-.1451.4864-.2325.9082L931.8,520.07h-1.22l1.5547-7.5117Z" transform="translate(-859.4999 -457.3646)"/><path d="M937.3791,522.0243a3.2344,3.2344,0,0,1-.5088.5664,2.1615,2.1615,0,0,1-.6245.3779,2.2074,2.2074,0,0,1-.8135.1377,2.0886,2.0886,0,0,1-.4506-.0508,1.7723,1.7723,0,0,1-.4068-.1377l.2183-1.0029a1.4382,1.4382,0,0,0,.3486.1455,1.3276,1.3276,0,0,0,.3486.0576,1.0077,1.0077,0,0,0,.6827-.2246,2.3931,2.3931,0,0,0,.48-.5888l.7553-1.2344-1.3217-7.5117h1.3217l.8721,5.9717h.0288l3.1528-5.9717h1.3511l-4.9687,8.7754Q937.6118,521.6972,937.3791,522.0243Z" transform="translate(-859.4999 -457.3646)"/><path d="M947.1711,512.5585l-.2324,1.09h-1.4961l-.9307,4.417c-.01.0869-.0195.169-.0283.2471a1.9554,1.9554,0,0,0-.0146.2461.4054.4054,0,0,0,.2246.4,1.1785,1.1785,0,0,0,.5166.1084,1.7717,1.7717,0,0,0,.3633-.0362,3.0687,3.0687,0,0,0,.3486-.0947l-.2188,1.1338c-.1445.0195-.29.0361-.4355.0508a4.3492,4.3492,0,0,1-.4356.0215,3.96,3.96,0,0,1-.6543-.0508,1.4786,1.4786,0,0,1-.53-.1885,1.0579,1.0579,0,0,1-.3633-.3711,1.1542,1.1542,0,0,1-.1377-.5957,2.0286,2.0286,0,0,1,.0215-.3047c.0146-.0967.0312-.2031.0508-.3193l.9882-4.6641h-1.2636l.2324-1.09H944.44l.4648-2.2227H946.14l-.4649,2.2227Z" transform="translate(-859.4999 -457.3646)"/><path d="M950.3957,509.6962l-.8857,3.9668.0293.0293a2.91,2.91,0,0,1,1.1767-.9815,3.5469,3.5469,0,0,1,1.4961-.3262,2.292,2.292,0,0,1,1.5762.4649,1.8825,1.8825,0,0,1,.5166,1.4668,4.51,4.51,0,0,1-.0586.64c-.0391.2618-.0918.5371-.16.8282l-.9151,4.2861h-1.2353l.9589-4.3877c.01-.0781.0245-.167.044-.2686s.0391-.2089.0586-.32.0361-.2177.0508-.3193a2.0067,2.0067,0,0,0,.0214-.2539.8865.8865,0,0,0-.3779-.792,1.6241,1.6241,0,0,0-.93-.2549,2.2724,2.2724,0,0,0-1.01.2471,2.8693,2.8693,0,0,0-.85.625,2.0419,2.0419,0,0,0-.5235.7051,5.1486,5.1486,0,0,0-.3047.8642l-.872,4.1553h-1.2207l2.18-10.374Z" transform="translate(-859.4999 -457.3646)"/><path d="M957.85,512.5585l-1.5693,7.5117H955.06l1.5547-7.5117Zm-.959-1.3516.3194-1.5107h1.25l-.32,1.5107Z" transform="translate(-859.4999 -457.3646)"/><path d="M961.0451,512.5585l-.2324,1.1338h.0293a2.9109,2.9109,0,0,1,1.1768-.9815,3.5476,3.5476,0,0,1,1.497-.3262,2.2918,2.2918,0,0,1,1.5762.4649,1.8818,1.8818,0,0,1,.5156,1.4668,4.51,4.51,0,0,1-.0586.64c-.038.2618-.0918.5371-.1591.8282l-.9151,4.2861H963.24l.959-4.3877c.01-.0781.0244-.167.0439-.2686s.0381-.2089.0576-.32.0362-.2177.0508-.3193a1.838,1.838,0,0,0,.0215-.2539.8881.8881,0,0,0-.377-.792,1.6273,1.6273,0,0,0-.9306-.2549,2.2757,2.2757,0,0,0-1.01.2471,2.8693,2.8693,0,0,0-.85.625,2.0393,2.0393,0,0,0-.5225.7051,5.1513,5.1513,0,0,0-.3056.8642l-.8721,4.1553h-1.22l1.5693-7.5117Z" transform="translate(-859.4999 -457.3646)"/><path d="M972.8137,520.0917a8.2578,8.2578,0,0,1-.3047.9228,3.1749,3.1749,0,0,1-1.3369,1.6123,4.1977,4.1977,0,0,1-2.0772.48,4.5876,4.5876,0,0,1-1.1113-.1308,2.8794,2.8794,0,0,1-.9375-.4063,2.1384,2.1384,0,0,1-.6611-.72,2.2238,2.2238,0,0,1-.2686-1.0674h1.2207a1.1505,1.1505,0,0,0,.6172.9951,1.7938,1.7938,0,0,0,.5879.1885,4.5039,4.5039,0,0,0,.6836.0508,2.34,2.34,0,0,0,1.1689-.2608,2.2463,2.2463,0,0,0,.7481-.6836,3.4615,3.4615,0,0,0,.458-.9658q.1669-.5449.3125-1.0967l-.0293-.0293a2.3111,2.3111,0,0,1-1.0166.8721,3.332,3.332,0,0,1-1.3223.2608,3.116,3.116,0,0,1-1.2275-.2246,2.3069,2.3069,0,0,1-.8789-.64,2.8582,2.8582,0,0,1-.53-.9805,4.0766,4.0766,0,0,1-.1816-1.25,5.3271,5.3271,0,0,1,.2685-1.6562,5,5,0,0,1,.77-1.4893,4.0176,4.0176,0,0,1,1.2285-1.0742,3.2489,3.2489,0,0,1,1.6416-.4141,2.93,2.93,0,0,1,1.5176.4141,2.0044,2.0044,0,0,1,.5527.4795,1.661,1.661,0,0,1,.3125.6318v.0284h.0283l.2324-1.38h1.1631L973.09,518.98Q972.96,519.5619,972.8137,520.0917Zm-4.7363-2.3028a1.9452,1.9452,0,0,0,.3418.64,1.6516,1.6516,0,0,0,.5742.4424,1.8619,1.8619,0,0,0,.8135.167,2.1125,2.1125,0,0,0,1.2128-.3487,2.9084,2.9084,0,0,0,.85-.8857,4.2983,4.2983,0,0,0,.5019-1.17,4.7313,4.7313,0,0,0,.167-1.1983,2.0811,2.0811,0,0,0-.4727-1.4238,1.8238,1.8238,0,0,0-1.4453-.5381,1.8845,1.8845,0,0,0-1.1474.3633,3.2326,3.2326,0,0,0-.8282.8935,4.3376,4.3376,0,0,0-.5087,1.1485,4.2093,4.2093,0,0,0-.1748,1.14A2.5217,2.5217,0,0,0,968.0774,517.7889Z" transform="translate(-859.4999 -457.3646)"/></svg>