<svg id="Layer_1" data-name="Layer 1" xmlns="http://www.w3.org/2000/svg" viewBox="0 0 395.5615 87.3158"><defs><style>.cls-1{fill:#fff;stroke:#231f20;}.cls-1,.cls-2{stroke-miterlimit:10;}.cls-2{fill:none;stroke:#231fda;}.cls-3{fill:#231fda;}</style></defs><title>step1</title><rect class="cls-1" x="0.5" y="0.5" width="162.8072" height="86.3158"/><path d="M782.7268,471a2.2928,2.2928,0,0,0-.5088-.5737,2.3757,2.3757,0,0,0-1.4961-.523,2.658,2.658,0,0,0-1.3076.2979,2.4755,2.4755,0,0,0-.8721.7988,3.5006,3.5006,0,0,0-.4863,1.1406,5.6584,5.6584,0,0,0-.1529,1.3223,5.2613,5.2613,0,0,0,.1529,1.271,3.4324,3.4324,0,0,0,.4863,1.1118,2.498,2.498,0,0,0,.8721.7915,2.6591,2.6591,0,0,0,1.3076.2978,2.11,2.11,0,0,0,1.6343-.6391,2.9563,2.9563,0,0,0,.7192-1.6856h2.2085a5.27,5.27,0,0,1-.4507,1.7583,4.208,4.208,0,0,1-.9585,1.3365,4.0806,4.0806,0,0,1-1.395.8427,5.105,5.105,0,0,1-1.7578.2906,5.3213,5.3213,0,0,1-2.1431-.4141,4.5888,4.5888,0,0,1-1.6054-1.1406,5.04,5.04,0,0,1-1.0025-1.7071,6.2662,6.2662,0,0,1-.3486-2.1137,6.4843,6.4843,0,0,1,.3486-2.1577,5.1845,5.1845,0,0,1,1.0025-1.7364,4.5917,4.5917,0,0,1,1.6054-1.1621,5.56,5.56,0,0,1,3.7627-.1743,4.3769,4.3769,0,0,1,1.3657.7192,3.8954,3.8954,0,0,1,.9957,1.1695,4.1867,4.1867,0,0,1,.4936,1.5981H782.988A1.87,1.87,0,0,0,782.7268,471Z" transform="translate(-743.1665 -457.2498)"/><path d="M788.8288,476.8041a2.114,2.114,0,0,0,2.4116.1382,1.2978,1.2978,0,0,0,.5523-.6612h1.8159a3.448,3.448,0,0,1-1.3369,1.9326,3.935,3.935,0,0,1-2.1792.5811,4.2974,4.2974,0,0,1-1.5981-.2832,3.3225,3.3225,0,0,1-1.2056-.8066,3.6258,3.6258,0,0,1-.7632-1.25,4.571,4.571,0,0,1-.2686-1.5981,4.3788,4.3788,0,0,1,.2759-1.5688,3.6312,3.6312,0,0,1,1.9981-2.0923,3.8839,3.8839,0,0,1,1.5615-.3052,3.5709,3.5709,0,0,1,1.6709.3706,3.3347,3.3347,0,0,1,1.1694.9951,4.0919,4.0919,0,0,1,.6612,1.4238,5.3083,5.3083,0,0,1,.1455,1.6709H788.32A2.0826,2.0826,0,0,0,788.8288,476.8041Zm2.3316-3.9517a1.45,1.45,0,0,0-1.126-.4067,1.7946,1.7946,0,0,0-.8208.167,1.5661,1.5661,0,0,0-.523.414,1.5131,1.5131,0,0,0-.2758.523,2.35,2.35,0,0,0-.0948.4941h3.3565A2.3894,2.3894,0,0,0,791.16,472.8524Z" transform="translate(-743.1665 -457.2498)"/><path d="M797.0808,468.2323v10.3735h-2.063V468.2323Z" transform="translate(-743.1665 -457.2498)"/><path d="M800.8293,468.2323v10.3735h-2.063V468.2323Z" transform="translate(-743.1665 -457.2498)"/><path d="M804.4182,476.0487a1.6407,1.6407,0,0,0,.501.5884,2.1682,2.1682,0,0,0,.7338.3345,3.4862,3.4862,0,0,0,.8716.1088,4.5691,4.5691,0,0,0,.6538-.0507,2.2863,2.2863,0,0,0,.6538-.1963,1.4247,1.4247,0,0,0,.5088-.3994,1.0046,1.0046,0,0,0,.2032-.6465.9116.9116,0,0,0-.2686-.6831,2.1382,2.1382,0,0,0-.7046-.4361,7.02,7.02,0,0,0-.9883-.3046q-.5522-.1312-1.1186-.2911a9.8382,9.8382,0,0,1-1.1333-.3559,3.8829,3.8829,0,0,1-.9878-.5445,2.5666,2.5666,0,0,1-.7046-.8354,2.5325,2.5325,0,0,1-.269-1.2134,2.7149,2.7149,0,0,1,.3413-1.3872,3.091,3.091,0,0,1,.8935-.9809,3.903,3.903,0,0,1,1.25-.5811,5.317,5.317,0,0,1,1.395-.189,6.5941,6.5941,0,0,1,1.5616.1817,3.9018,3.9018,0,0,1,1.33.5884,2.985,2.985,0,0,1,.9228,1.039,3.19,3.19,0,0,1,.3413,1.5327h-2.2085a1.8342,1.8342,0,0,0-.1963-.77,1.2839,1.2839,0,0,0-.4428-.48,1.8764,1.8764,0,0,0-.6324-.2471,3.8963,3.8963,0,0,0-.7768-.0727,2.6779,2.6779,0,0,0-.5523.0581,1.491,1.491,0,0,0-.5014.2036,1.2559,1.2559,0,0,0-.37.3633.9712.9712,0,0,0-.1455.5518.9305.9305,0,0,0,.1162.4941,1.0359,1.0359,0,0,0,.4575.3486,5.7871,5.7871,0,0,0,.9443.32q.6028.16,1.5767.4068.29.0579.8061.21a3.8853,3.8853,0,0,1,1.0244.4869,3.1036,3.1036,0,0,1,.8789.8935,2.5433,2.5433,0,0,1,.3707,1.4312,3.1766,3.1766,0,0,1-.2759,1.3222,2.878,2.878,0,0,1-.8213,1.0532,3.9453,3.9453,0,0,1-1.3511.69,6.3931,6.3931,0,0,1-1.8667.2471,6.568,6.568,0,0,1-1.6636-.2105,4.1855,4.1855,0,0,1-1.4238-.6611,3.2622,3.2622,0,0,1-.9809-1.148,3.4251,3.4251,0,0,1-.3487-1.6562h2.2085A1.9,1.9,0,0,0,804.4182,476.0487Z" transform="translate(-743.1665 -457.2498)"/><path d="M811.9436,469.932v-1.7h2.063v1.7Zm2.063,1.1626v7.5112h-2.063v-7.5112Z" transform="translate(-743.1665 -457.2498)"/><path d="M817.6389,471.0946v1.0171h.0288a2.9344,2.9344,0,0,1,.981-.9009,2.6576,2.6576,0,0,1,1.3149-.32,3.0323,3.0323,0,0,1,1.3.2759,1.8293,1.8293,0,0,1,.8935.9736,3.203,3.203,0,0,1,.9078-.8716,2.4146,2.4146,0,0,1,1.3588-.3779,4.0128,4.0128,0,0,1,1.104.1455,2.225,2.225,0,0,1,.8716.4648,2.13,2.13,0,0,1,.5669.8355,3.3934,3.3934,0,0,1,.2031,1.2422v5.0268h-2.0629V474.349q0-.378-.0288-.7119a1.5107,1.5107,0,0,0-.16-.5811.9683.9683,0,0,0-.3848-.3925,1.3968,1.3968,0,0,0-.69-.1451,1.3206,1.3206,0,0,0-.7046.167,1.2171,1.2171,0,0,0-.4214.4356,1.75,1.75,0,0,0-.2031.61,4.6424,4.6424,0,0,0-.0508.6905v4.184h-2.0635v-4.2133q0-.334-.0141-.6612a1.8564,1.8564,0,0,0-.1236-.603.93.93,0,0,0-.3632-.4429,1.3717,1.3717,0,0,0-.7486-.167,1.5256,1.5256,0,0,0-.3847.0655,1.28,1.28,0,0,0-.4649.2465,1.4449,1.4449,0,0,0-.3852.5235,2.1227,2.1227,0,0,0-.16.8931v4.3588h-2.063v-7.5112Z" transform="translate(-743.1665 -457.2498)"/><path d="M833.882,478.6058V477.56h-.0434a2.3247,2.3247,0,0,1-1.0171.9444,3.0086,3.0086,0,0,1-1.2788.2905,3.6045,3.6045,0,0,1-1.3584-.2183,1.9578,1.9578,0,0,1-.8355-.6171,2.4172,2.4172,0,0,1-.4282-.9737,6.0383,6.0383,0,0,1-.1235-1.271v-4.62h2.063v4.2422a2.6322,2.6322,0,0,0,.2905,1.3877,1.1255,1.1255,0,0,0,1.0317.4575,1.4288,1.4288,0,0,0,1.22-.5015,2.784,2.784,0,0,0,.3779-1.6489v-3.937h2.063v7.5112Z" transform="translate(-743.1665 -457.2498)"/><path d="M839.5334,468.2323v10.3735H837.47V468.2323Z" transform="translate(-743.1665 -457.2498)"/><path d="M841.0735,473.4047a2.4018,2.4018,0,0,1,.3632-1.2061,2.4724,2.4724,0,0,1,.8135-.77,3.5457,3.5457,0,0,1,1.1118-.4141,6.3444,6.3444,0,0,1,1.2422-.1235,8.4111,8.4111,0,0,1,1.1475.08,3.5079,3.5079,0,0,1,1.06.312,2.0875,2.0875,0,0,1,.7847.647,1.8043,1.8043,0,0,1,.3052,1.0966v3.9082a7.8786,7.8786,0,0,0,.0581.9737,1.747,1.747,0,0,0,.2036.6972h-2.0923a2.8359,2.8359,0,0,1-.0942-.3559,3.0858,3.0858,0,0,1-.0513-.3706,2.6823,2.6823,0,0,1-1.1621.7119,4.664,4.664,0,0,1-1.3657.2036,3.6816,3.6816,0,0,1-1.0025-.1309,2.2976,2.2976,0,0,1-.8135-.4067,1.897,1.897,0,0,1-.5449-.6973,2.3569,2.3569,0,0,1-.1963-1.0024,2.195,2.195,0,0,1,.2251-1.0537,1.8862,1.8862,0,0,1,.5816-.6611,2.5927,2.5927,0,0,1,.8135-.37,8.7535,8.7535,0,0,1,.9223-.1963q.4651-.0725.9155-.1162a5.5484,5.5484,0,0,0,.7989-.1308,1.3888,1.3888,0,0,0,.5522-.2544.5576.5576,0,0,0,.189-.4863,1.0979,1.0979,0,0,0-.1089-.53.8062.8062,0,0,0-.29-.3052,1.1507,1.1507,0,0,0-.4214-.1455,3.5,3.5,0,0,0-.5161-.0361,1.5648,1.5648,0,0,0-.9585.2612,1.1679,1.1679,0,0,0-.4073.8721Zm4.7656,1.5254a.9245.9245,0,0,1-.3272.1816,3.28,3.28,0,0,1-.4214.1089c-.15.0293-.3071.0532-.4721.0727s-.3291.0435-.4937.0728a3.68,3.68,0,0,0-.4575.1162,1.3563,1.3563,0,0,0-.3926.1958.9342.9342,0,0,0-.2685.3125,1.0035,1.0035,0,0,0-.1021.48.9672.9672,0,0,0,.1021.4648.7764.7764,0,0,0,.2759.2979,1.17,1.17,0,0,0,.4067.1528,2.6186,2.6186,0,0,0,.4795.0435,1.8222,1.8222,0,0,0,.9443-.2036,1.363,1.363,0,0,0,.4942-.4868,1.5507,1.5507,0,0,0,.1958-.5738,3.9054,3.9054,0,0,0,.0366-.4648Z" transform="translate(-743.1665 -457.2498)"/><path d="M853.6262,471.0946v1.38h-1.5108v3.72a.6985.6985,0,0,0,.8716.8716q.1743,0,.334-.0146a2.76,2.76,0,0,0,.3052-.0435v1.5981a4.8639,4.8639,0,0,1-.5811.0581q-.32.0147-.6245.0147a6.0472,6.0472,0,0,1-.9082-.0654,2.14,2.14,0,0,1-.7554-.2544,1.3433,1.3433,0,0,1-.5161-.5376,1.9194,1.9194,0,0,1-.1889-.9151v-4.4316h-1.2491v-1.38h1.2491v-2.2519h2.0634v2.2519Z" transform="translate(-743.1665 -457.2498)"/><path d="M854.6721,469.932v-1.7h2.063v1.7Zm2.063,1.1626v7.5112h-2.063v-7.5112Z" transform="translate(-743.1665 -457.2498)"/><path d="M858.406,473.223a3.4366,3.4366,0,0,1,2.0049-2.0488,4.2974,4.2974,0,0,1,1.5981-.2832,4.3555,4.3555,0,0,1,1.6055.2832,3.42,3.42,0,0,1,2.0122,2.0488,4.6088,4.6088,0,0,1,.2763,1.6343,4.5506,4.5506,0,0,1-.2763,1.6274,3.5293,3.5293,0,0,1-.7842,1.2422,3.4178,3.4178,0,0,1-1.228.7915,4.4483,4.4483,0,0,1-1.6055.2764,4.3889,4.3889,0,0,1-1.5981-.2764,3.4239,3.4239,0,0,1-1.22-.7915,3.5245,3.5245,0,0,1-.7846-1.2422,4.5507,4.5507,0,0,1-.2759-1.6274A4.6088,4.6088,0,0,1,858.406,473.223Zm1.874,2.5132a2.3382,2.3382,0,0,0,.2979.77,1.5824,1.5824,0,0,0,.5595.545,1.706,1.706,0,0,0,.8716.2036,1.7471,1.7471,0,0,0,.8789-.2036,1.5643,1.5643,0,0,0,.5669-.545,2.3425,2.3425,0,0,0,.2979-.77,4.3944,4.3944,0,0,0,.0869-.8789,4.5112,4.5112,0,0,0-.0869-.8862,2.2723,2.2723,0,0,0-.2979-.77,1.6577,1.6577,0,0,0-.5669-.545,1.7029,1.7029,0,0,0-.8789-.21,1.5859,1.5859,0,0,0-1.4311.7554,2.2682,2.2682,0,0,0-.2979.77,4.5112,4.5112,0,0,0-.0869.8862A4.3944,4.3944,0,0,0,860.28,475.7362Z" transform="translate(-743.1665 -457.2498)"/><path d="M869.2009,471.0946v1.0459h.0435a2.3689,2.3689,0,0,1,1.017-.9517,2.9451,2.9451,0,0,1,1.2784-.2978,3.508,3.508,0,0,1,1.3584.2251,2.013,2.013,0,0,1,.8354.625,2.4193,2.4193,0,0,1,.4287.9731,6.0736,6.0736,0,0,1,.1236,1.2715v4.62h-2.063v-4.2421a2.6354,2.6354,0,0,0-.2906-1.3877,1.1255,1.1255,0,0,0-1.0317-.4576,1.4285,1.4285,0,0,0-1.22.501,2.7866,2.7866,0,0,0-.3779,1.6489v3.9375H867.24v-7.5112Z" transform="translate(-743.1665 -457.2498)"/><path d="M782.9587,504.9686a1.8893,1.8893,0,0,0-1.1186-.3271,3.898,3.898,0,0,0-.5664.043,1.7757,1.7757,0,0,0-.5162.1533,1.0465,1.0465,0,0,0-.37.29.7317.7317,0,0,0-.1455.4727.6579.6579,0,0,0,.167.45,1.7255,1.7255,0,0,0,.4507.3486,4.9253,4.9253,0,0,0,.6391.2978q.3561.1377.7193.2832.3773.16.7334.3487a3.3535,3.3535,0,0,1,.6323.4287,1.9846,1.9846,0,0,1,.45.5664,1.5986,1.5986,0,0,1,.1743.7627,1.981,1.981,0,0,1-.2759,1.0684,2.233,2.233,0,0,1-.7119.7187,3.0764,3.0764,0,0,1-.98.3994,4.9105,4.9105,0,0,1-1.0972.124,5.4847,5.4847,0,0,1-1.2061-.124,2.5261,2.5261,0,0,1-.9516-.414,2.0044,2.0044,0,0,1-.6319-.7774,2.81,2.81,0,0,1-.2324-1.2129h1.22a1.2475,1.2475,0,0,0,.1236.69,1.1825,1.1825,0,0,0,.4214.45,1.8934,1.8934,0,0,0,.625.24,3.7785,3.7785,0,0,0,.748.0722,3.2365,3.2365,0,0,0,.61-.0585,1.8089,1.8089,0,0,0,.5517-.1954,1.19,1.19,0,0,0,.4-.3564.9143.9143,0,0,0,.1524-.5371.6865.6865,0,0,0-.1744-.4727,1.8074,1.8074,0,0,0-.45-.3554,4.5194,4.5194,0,0,0-.6323-.2979c-.2373-.0928-.477-.1914-.7192-.2978-.252-.0967-.4961-.2041-.7334-.32a3.0615,3.0615,0,0,1-.6392-.414,1.8437,1.8437,0,0,1-.4507-.5586,1.5775,1.5775,0,0,1-.167-.7412,1.7956,1.7956,0,0,1,.24-.93,2.1,2.1,0,0,1,.6318-.6758,3.0782,3.0782,0,0,1,.8936-.4141,3.6737,3.6737,0,0,1,1.0244-.1455,4.3254,4.3254,0,0,1,1.0317.1241,2.6244,2.6244,0,0,1,.9078.4062,2.123,2.123,0,0,1,.6464.7412,2.3125,2.3125,0,0,1,.2471,1.1114h-1.2349A1.0408,1.0408,0,0,0,782.9587,504.9686Z" transform="translate(-743.1665 -457.2498)"/><path d="M789.9328,503.7264l-.2324,1.0889h-1.4966l-.93,4.417c-.01.0869-.02.17-.0289.2471a2.0009,2.0009,0,0,0-.0146.247.4027.4027,0,0,0,.2251.3995,1.1643,1.1643,0,0,0,.5161.1093,1.84,1.84,0,0,0,.3633-.0361,3.09,3.09,0,0,0,.3486-.0947l-.2182,1.1328c-.1451.02-.2906.0361-.4356.0508a4.36,4.36,0,0,1-.436.0224,4.06,4.06,0,0,1-.6538-.0508,1.4552,1.4552,0,0,1-.53-.1894,1.0558,1.0558,0,0,1-.3633-.37,1.1517,1.1517,0,0,1-.1382-.5957,2.0629,2.0629,0,0,1,.022-.3057c.0146-.0967.0313-.2031.0508-.3193l.9883-4.6641h-1.2642l.2324-1.0889h1.2642l.4648-2.2236h1.2349l-.4649,2.2236Z" transform="translate(-743.1665 -457.2498)"/><path d="M794.5813,511.2372l.2324-1.1328h-.0288a2.8684,2.8684,0,0,1-1.1768.9736,3.6165,3.6165,0,0,1-1.4966.3193,2.3169,2.3169,0,0,1-1.5761-.458,1.857,1.857,0,0,1-.5161-1.46,4.5857,4.5857,0,0,1,.0581-.64q.0578-.391.16-.8281l.9151-4.2852h1.2348l-.9585,4.3877a2.6472,2.6472,0,0,0-.0581.2608c-.0195.1074-.039.2158-.0581.3271s-.0342.2178-.0439.3194-.0142.1875-.0142.2548a.8875.8875,0,0,0,.3774.792,1.6311,1.6311,0,0,0,.93.2539,2.2837,2.2837,0,0,0,.9663-.2031,2.7864,2.7864,0,0,0,.792-.5449,3.251,3.251,0,0,0,.5884-.7852,3.4506,3.4506,0,0,0,.3413-.9072l.8716-4.1553h1.2354l-1.584,7.5108Z" transform="translate(-743.1665 -457.2498)"/><path d="M798.33,504.8153l.2183-1.0889h1.2783q.145-.5669.269-1.1049a3.5571,3.5571,0,0,1,.356-.9517,1.8152,1.8152,0,0,1,.6465-.668,2.2087,2.2087,0,0,1,1.1548-.2544q.2614,0,.5229.022a2.5335,2.5335,0,0,1,.5088.0943l-.2036,1.0458c-.1065-.019-.2085-.0361-.3052-.0507a1.8333,1.8333,0,0,0-.2759-.0215,1.2358,1.2358,0,0,0-.6972.167,1.1549,1.1549,0,0,0-.3853.4355,2.275,2.275,0,0,0-.2031.603q-.0652.3356-.167.6836h1.438l-.2031,1.0889h-1.4532l-1.38,6.4219h-1.2353l1.395-6.4219Z" transform="translate(-743.1665 -457.2498)"/><path d="M802.3689,504.8153l.2182-1.0889h1.2783q.145-.5669.2691-1.1049a3.557,3.557,0,0,1,.3559-.9517,1.816,1.816,0,0,1,.6465-.668,2.2091,2.2091,0,0,1,1.1548-.2544q.2614,0,.523.022a2.5348,2.5348,0,0,1,.5088.0943L807.12,501.91c-.1064-.019-.2085-.0361-.3051-.0507a1.8333,1.8333,0,0,0-.2759-.0215,1.2364,1.2364,0,0,0-.6973.167,1.1555,1.1555,0,0,0-.3852.4355,2.2786,2.2786,0,0,0-.2032.603c-.0434.2237-.1.4512-.1669.6836h1.4379l-.2031,1.0889h-1.4531l-1.38,6.4219h-1.2353l1.395-6.4219Z" transform="translate(-743.1665 -457.2498)"/><path d="M811.4133,504.91a2.7519,2.7519,0,0,1,.7334-.7627,3.0672,3.0672,0,0,1,.9878-.45,4.506,4.506,0,0,1,1.1479-.1455,6.0523,6.0523,0,0,1,1.0459.087,2.6573,2.6573,0,0,1,.8721.3056,1.6764,1.6764,0,0,1,.603.5879,1.782,1.782,0,0,1,.2251.9375,3.2944,3.2944,0,0,1-.08.69c-.0533.2461-.104.4717-.1524.6748l-.48,2.0489c-.0293.1552-.07.3291-.1235.5234a2.08,2.08,0,0,0-.08.5518.5066.5066,0,0,0,.1021.3632.354.354,0,0,0,.2612.1016.6232.6232,0,0,0,.1963-.0361c.0727-.0244.1382-.0459.1963-.0655l-.189.9151a2.53,2.53,0,0,1-.3706.1094,1.841,1.841,0,0,1-.3853.0507,1.01,1.01,0,0,1-.77-.2763.9079.9079,0,0,1-.2031-.77l-.0293-.0293a2.5846,2.5846,0,0,1-.9731.7989,3.6157,3.6157,0,0,1-1.54.2763,3.4745,3.4745,0,0,1-.8935-.1093,1.8266,1.8266,0,0,1-.7193-.3633,1.8,1.8,0,0,1-.4868-.6533,2.366,2.366,0,0,1-.1816-.9805,2.0812,2.0812,0,0,1,.3559-1.293,2.2523,2.2523,0,0,1,.9082-.7051,4.5265,4.5265,0,0,1,1.22-.3271q.6681-.0864,1.2935-.1455.4937-.0425.85-.0938a1.9506,1.9506,0,0,0,.5884-.1669.7428.7428,0,0,0,.3413-.334,1.3479,1.3479,0,0,0,.1094-.5957.7891.7891,0,0,0-.1455-.4942,1.0275,1.0275,0,0,0-.3633-.2978,1.6675,1.6675,0,0,0-.4868-.1533,3.2984,3.2984,0,0,0-.5157-.043,3.347,3.347,0,0,0-.69.0722,1.99,1.99,0,0,0-.6177.24,1.6182,1.6182,0,0,0-.4648.4209,1.387,1.387,0,0,0-.2471.6172H811.028A2.6251,2.6251,0,0,1,811.4133,504.91Zm.3486,5.15a1.7136,1.7136,0,0,0,.937.2617,2.3179,2.3179,0,0,0,2.1065-.9882,2.4326,2.4326,0,0,0,.4141-.9151q.109-.4936.24-1.0166H815.43a1.6846,1.6846,0,0,1-.6611.2686,8.4876,8.4876,0,0,1-.85.123q-.45.044-.9078.1094a3.5517,3.5517,0,0,0-.8212.2109,1.51,1.51,0,0,0-.5957.4141,1.1589,1.1589,0,0,0-.2466.748A.8649.8649,0,0,0,811.7619,510.06Z" transform="translate(-743.1665 -457.2498)"/><path d="M821.1545,500.8637l-.7988,3.7924.0288.0284a2.9908,2.9908,0,0,1,1.01-.835,2.8114,2.8114,0,0,1,1.2861-.2979,3.2605,3.2605,0,0,1,1.3076.24,2.5037,2.5037,0,0,1,.915.66,2.7764,2.7764,0,0,1,.545,1.0176,4.5234,4.5234,0,0,1,.1816,1.3223,5.6552,5.6552,0,0,1-.2617,1.7138,4.5116,4.5116,0,0,1-.77,1.4678,3.9521,3.9521,0,0,1-1.2422,1.0313,3.5331,3.5331,0,0,1-1.6924.3925,3.1713,3.1713,0,0,1-.959-.1377,3.0154,3.0154,0,0,1-.7627-.3564,2.201,2.201,0,0,1-.5376-.4941,1.3709,1.3709,0,0,1-.269-.5664h-.0288l-.2759,1.3945h-1.09l2.1792-10.3735Zm3.1314,5.0854a2.118,2.118,0,0,0-.32-.6826,1.5061,1.5061,0,0,0-.53-.458,1.61,1.61,0,0,0-.7554-.167,2.5391,2.5391,0,0,0-1.395.37,3.1423,3.1423,0,0,0-.9517.9375,4.1568,4.1568,0,0,0-.5449,1.2344,5.0227,5.0227,0,0,0-.1743,1.2646,1.7324,1.7324,0,0,0,.5669,1.38,2.1739,2.1739,0,0,0,1.4819.4941,2.0319,2.0319,0,0,0,1.1768-.3486,3.2039,3.2039,0,0,0,.8574-.8721,3.977,3.977,0,0,0,.5229-1.1474,4.3375,4.3375,0,0,0,.1743-1.1621A3.1543,3.1543,0,0,0,824.2859,505.9491Z" transform="translate(-743.1665 -457.2498)"/><path d="M826.9441,506.5009a4.5752,4.5752,0,0,1,.8281-1.5108,4.1158,4.1158,0,0,1,1.3223-1.0459,3.86,3.86,0,0,1,1.7651-.3926,3.1646,3.1646,0,0,1,2.3247.792,3.1232,3.1232,0,0,1,.7988,2.3174,5.7429,5.7429,0,0,1-.2759,1.7725,4.648,4.648,0,0,1-.8134,1.5185,4.0212,4.0212,0,0,1-1.3076,1.0528,3.8192,3.8192,0,0,1-1.7583.3925,3.6068,3.6068,0,0,1-1.3292-.2324,2.7563,2.7563,0,0,1-1.62-1.6347,3.5176,3.5176,0,0,1-.2177-1.2569A5.61,5.61,0,0,1,826.9441,506.5009Zm1.4746,3.2548a1.9916,1.9916,0,0,0,1.54.5664,2.09,2.09,0,0,0,1.1987-.3486,3.2043,3.2043,0,0,0,.8716-.8789,4.1206,4.1206,0,0,0,.5376-1.1553,4.2191,4.2191,0,0,0,.1817-1.1767,2.8914,2.8914,0,0,0-.1163-.8281,1.7254,1.7254,0,0,0-.98-1.126,2.1248,2.1248,0,0,0-.8789-.167,2.2428,2.2428,0,0,0-1.25.3486,3.1648,3.1648,0,0,0-.9009.8789,3.9725,3.9725,0,0,0-.5449,1.17,4.4626,4.4626,0,0,0-.1817,1.22A2.12,2.12,0,0,0,828.4187,509.7557Z" transform="translate(-743.1665 -457.2498)"/><path d="M839.5329,511.2372l.2325-1.1328h-.0289a2.8675,2.8675,0,0,1-1.1767.9736,3.6165,3.6165,0,0,1-1.4966.3193,2.3173,2.3173,0,0,1-1.5762-.458,1.8574,1.8574,0,0,1-.5161-1.46,4.5857,4.5857,0,0,1,.0581-.64q.0579-.391.16-.8281l.915-4.2852h1.2349l-.9585,4.3877a2.6186,2.6186,0,0,0-.0581.2608c-.02.1074-.0391.2158-.0581.3271s-.0342.2178-.044.3194-.0141.1875-.0141.2548a.8875.8875,0,0,0,.3774.792,1.6309,1.6309,0,0,0,.93.2539,2.284,2.284,0,0,0,.9663-.2031,2.7878,2.7878,0,0,0,.792-.5449,3.2536,3.2536,0,0,0,.5884-.7852,3.4576,3.4576,0,0,0,.3413-.9072l.8716-4.1553h1.2353l-1.584,7.5108Z" transform="translate(-743.1665 -457.2498)"/><path d="M847.5388,503.7264l-.2324,1.0889H845.81l-.93,4.417c-.01.0869-.0195.17-.0288.2471a1.9816,1.9816,0,0,0-.0146.247.4026.4026,0,0,0,.225.3995,1.1645,1.1645,0,0,0,.5162.1093,1.8387,1.8387,0,0,0,.3632-.0361,3.0855,3.0855,0,0,0,.3487-.0947l-.2183,1.1328c-.145.02-.2905.0361-.4355.0508a4.362,4.362,0,0,1-.4361.0224,4.06,4.06,0,0,1-.6538-.0508,1.4553,1.4553,0,0,1-.53-.1894,1.0558,1.0558,0,0,1-.3633-.37,1.1517,1.1517,0,0,1-.1382-.5957,2.05,2.05,0,0,1,.022-.3057c.0146-.0967.0312-.2031.0507-.3193l.9883-4.6641h-1.2641l.2324-1.0889h1.2641l.4649-2.2236h1.2348l-.4648,2.2236Z" transform="translate(-743.1665 -457.2498)"/><path d="M856.154,503.7264l-.2324,1.0889H854.425l-.93,4.417c-.01.0869-.02.17-.0288.2471a2.0009,2.0009,0,0,0-.0146.247.4027.4027,0,0,0,.2251.3995,1.164,1.164,0,0,0,.5161.1093,1.84,1.84,0,0,0,.3633-.0361,3.09,3.09,0,0,0,.3486-.0947l-.2183,1.1328c-.145.02-.29.0361-.4355.0508a4.36,4.36,0,0,1-.436.0224,4.0593,4.0593,0,0,1-.6538-.0508,1.4552,1.4552,0,0,1-.53-.1894,1.0558,1.0558,0,0,1-.3633-.37,1.1517,1.1517,0,0,1-.1382-.5957,2.05,2.05,0,0,1,.022-.3057c.0146-.0967.0312-.2031.0508-.3193l.9883-4.6641H851.926l.2324-1.0889h1.2642l.4648-2.2236h1.2349l-.4649,2.2236Z" transform="translate(-743.1665 -457.2498)"/><path d="M859.3786,500.8637l-.8862,3.9663.0293.0293a2.9157,2.9157,0,0,1,1.1768-.9805,3.548,3.548,0,0,1,1.4965-.3272,2.2969,2.2969,0,0,1,1.5762.4649,1.8842,1.8842,0,0,1,.5161,1.4678,4.4855,4.4855,0,0,1-.0586.6386q-.0578.3925-.16.8282l-.9151,4.2861h-1.2353l.959-4.3877c.01-.0772.0244-.167.0439-.2686s.0386-.208.0581-.3193.0361-.2178.0508-.32a1.9079,1.9079,0,0,0,.0215-.2539.8885.8885,0,0,0-.3775-.792,1.6323,1.6323,0,0,0-.93-.2539,2.2607,2.2607,0,0,0-1.01.2471,2.8693,2.8693,0,0,0-.85.625,2.0275,2.0275,0,0,0-.523.7041,5.21,5.21,0,0,0-.3051.8642l-.8721,4.1553h-1.22l2.1792-10.3735Z" transform="translate(-743.1665 -457.2498)"/><path d="M865.4812,508.5057a1.8138,1.8138,0,0,0,.16.7774,1.5809,1.5809,0,0,0,.4361.5664,2.0811,2.0811,0,0,0,.6245.35,2.1675,2.1675,0,0,0,.7265.123,2.3528,2.3528,0,0,0,1.3658-.37,2.184,2.184,0,0,0,.7988-1.0683h1.2354a3.2415,3.2415,0,0,1-.4654,1.0966,2.9539,2.9539,0,0,1-.77.7852,3.4113,3.4113,0,0,1-1.0024.4717,4.1652,4.1652,0,0,1-1.1622.16,3.717,3.717,0,0,1-1.5473-.2832,2.6883,2.6883,0,0,1-.9805-.7265,2.6059,2.6059,0,0,1-.5088-.9737,3.8734,3.8734,0,0,1-.145-1.0244,5.9251,5.9251,0,0,1,.312-1.9687,4.9112,4.9112,0,0,1,.8428-1.5322,3.7567,3.7567,0,0,1,1.2349-.9883,3.2835,3.2835,0,0,1,1.4746-.3487,3.0555,3.0555,0,0,1,2.4194.8721,3.61,3.61,0,0,1,.7627,2.4551,3.3148,3.3148,0,0,1-.044.5517c-.0288.1748-.0532.3155-.0722.4219h-5.6519A4.7878,4.7878,0,0,0,865.4812,508.5057Zm4.5254-2.52a1.7942,1.7942,0,0,0-.2906-.6826,1.5459,1.5459,0,0,0-.559-.4795,1.8408,1.8408,0,0,0-.8575-.1816,2.6428,2.6428,0,0,0-.9663.167,2.3759,2.3759,0,0,0-.748.458,2.7222,2.7222,0,0,0-.5376.6748,4.01,4.01,0,0,0-.3487.8213h4.3589A2.8058,2.8058,0,0,0,870.0066,505.9852Z" transform="translate(-743.1665 -457.2498)"/><path d="M760.636,522.4032a1.89,1.89,0,0,0-1.1187-.3271,3.9128,3.9128,0,0,0-.5664.0429,1.7812,1.7812,0,0,0-.5161.1533,1.047,1.047,0,0,0-.37.29.7311.7311,0,0,0-.1455.4726.6571.6571,0,0,0,.167.45,1.7246,1.7246,0,0,0,.4506.3487,4.9269,4.9269,0,0,0,.6392.2978q.356.1377.7192.2832.3772.16.7334.3487a3.35,3.35,0,0,1,.6324.4287,1.9881,1.9881,0,0,1,.45.5664,1.5981,1.5981,0,0,1,.1743.7627,1.9807,1.9807,0,0,1-.2759,1.0683,2.2354,2.2354,0,0,1-.7119.7188,3.08,3.08,0,0,1-.9805.3994,4.9105,4.9105,0,0,1-1.0972.124,5.4831,5.4831,0,0,1-1.206-.124,2.5244,2.5244,0,0,1-.9517-.4141,2.0031,2.0031,0,0,1-.6318-.7773,2.8082,2.8082,0,0,1-.2324-1.2129h1.22a1.247,1.247,0,0,0,.1235.69,1.1828,1.1828,0,0,0,.4214.45,1.8978,1.8978,0,0,0,.625.24,3.7785,3.7785,0,0,0,.748.0722,3.2268,3.2268,0,0,0,.61-.0586,1.81,1.81,0,0,0,.5518-.1953,1.1929,1.1929,0,0,0,.4-.3564.9152.9152,0,0,0,.1523-.5371.6868.6868,0,0,0-.1743-.4727,1.8076,1.8076,0,0,0-.45-.3555,4.5362,4.5362,0,0,0-.6323-.2978c-.2373-.0928-.4771-.1914-.7193-.2979-.2519-.0967-.4961-.2041-.7334-.32a3.0581,3.0581,0,0,1-.6391-.414,1.8419,1.8419,0,0,1-.4507-.5586,1.5776,1.5776,0,0,1-.167-.7413,1.7964,1.7964,0,0,1,.24-.93,2.1,2.1,0,0,1,.6319-.6758,3.0764,3.0764,0,0,1,.8935-.4141,3.67,3.67,0,0,1,1.0244-.1455,4.3261,4.3261,0,0,1,1.0318.124,2.6259,2.6259,0,0,1,.9077.4063,2.1234,2.1234,0,0,1,.6465.7412,2.3135,2.3135,0,0,1,.2471,1.1113H761.072A1.041,1.041,0,0,0,760.636,522.4032Z" transform="translate(-743.1665 -457.2498)"/><path d="M765.634,521.161l-1.5693,7.5108h-1.22l1.5546-7.5108Zm-.959-1.3515.32-1.5108h1.25l-.32,1.5108Z" transform="translate(-743.1665 -457.2498)"/><path d="M768.801,521.161l-.2759,1.1182.0288.0293a3.5657,3.5657,0,0,1,1.1553-.9658,3.0835,3.0835,0,0,1,1.46-.3565,2.3309,2.3309,0,0,1,1.22.3047,1.5184,1.5184,0,0,1,.6684,1.0469,3.2479,3.2479,0,0,1,1.126-.9815,3.0246,3.0246,0,0,1,1.4458-.37,3.1437,3.1437,0,0,1,.77.0947,2.1612,2.1612,0,0,1,.6753.29,1.422,1.422,0,0,1,.4722.5156,1.626,1.626,0,0,1,.1743.7852,4.4808,4.4808,0,0,1-.0723.7548q-.0732.4219-.1455.7412l-.9443,4.504h-1.2349l1.0459-4.7657c.0293-.1162.0557-.2539.08-.414a2.7762,2.7762,0,0,0,.0361-.3994.9337.9337,0,0,0-.3266-.7266,1.191,1.191,0,0,0-.8208-.29,1.7218,1.7218,0,0,0-.53.0869,2.9035,2.9035,0,0,0-.5161.2256,2.818,2.818,0,0,0-.4648.3261,2.8665,2.8665,0,0,0-.3775.3926,2.1191,2.1191,0,0,0-.4507.77,8.43,8.43,0,0,0-.247.915l-.8282,3.879H770.69l.9008-4.2862q.1011-.435.167-.8135a3.7268,3.7268,0,0,0,.0655-.5078.9652.9652,0,0,0-.2691-.7265,1.0673,1.0673,0,0,0-.7768-.2617,1.9965,1.9965,0,0,0-1.01.29,3.34,3.34,0,0,0-.8354.6689,2.1211,2.1211,0,0,0-.5376.7627,6.4734,6.4734,0,0,0-.2618.9366l-.8427,3.9375h-1.22l1.5835-7.5108Z" transform="translate(-743.1665 -457.2498)"/><path d="M783.2859,528.6718l.2324-1.1329H783.49a2.8679,2.8679,0,0,1-1.1768.9737,3.6165,3.6165,0,0,1-1.4966.3193,2.3169,2.3169,0,0,1-1.5761-.458,1.8572,1.8572,0,0,1-.5162-1.46,4.5883,4.5883,0,0,1,.0582-.64q.0578-.3911.16-.8281l.915-4.2852h1.2349l-.9585,4.3877a2.6472,2.6472,0,0,0-.0581.2608c-.0195.1074-.0391.2158-.0581.3271s-.0342.2178-.0439.3193-.0142.1875-.0142.2549a.8875.8875,0,0,0,.3774.792,1.6311,1.6311,0,0,0,.93.2539,2.2856,2.2856,0,0,0,.9663-.2031,2.79,2.79,0,0,0,.792-.5449,3.2555,3.2555,0,0,0,.5884-.7852,3.4541,3.4541,0,0,0,.3413-.9072l.8716-4.1553h1.2353l-1.5839,7.5108Z" transform="translate(-743.1665 -457.2498)"/><path d="M789.926,518.2987l-2.18,10.3731h-1.22l2.1645-10.3731Z" transform="translate(-743.1665 -457.2498)"/><path d="M790.9646,522.3446a2.7491,2.7491,0,0,1,.7334-.7627,3.0672,3.0672,0,0,1,.9878-.45,4.5,4.5,0,0,1,1.1479-.1455,6.0624,6.0624,0,0,1,1.0459.0869,2.6605,2.6605,0,0,1,.8721.3057,1.6772,1.6772,0,0,1,.603.5879,1.7815,1.7815,0,0,1,.2251.9375,3.2957,3.2957,0,0,1-.08.69c-.0532.2461-.104.4717-.1523.6748l-.48,2.0488c-.0293.1553-.07.3291-.1235.5235a2.0751,2.0751,0,0,0-.08.5517.5076.5076,0,0,0,.102.3633.3544.3544,0,0,0,.2613.1016.62.62,0,0,0,.1962-.0362c.0728-.0244.1382-.0459.1963-.0654l-.1889.9151a2.5186,2.5186,0,0,1-.3706.1093,1.8419,1.8419,0,0,1-.3853.0508,1.0093,1.0093,0,0,1-.77-.2764.9076.9076,0,0,1-.2031-.77l-.0293-.0293a2.5854,2.5854,0,0,1-.9732.7988,3.6139,3.6139,0,0,1-1.54.2764,3.4714,3.4714,0,0,1-.8936-.1094,1.8253,1.8253,0,0,1-.7192-.3632,1.8,1.8,0,0,1-.4868-.6534,2.3655,2.3655,0,0,1-.1817-.98,2.081,2.081,0,0,1,.356-1.293,2.2516,2.2516,0,0,1,.9082-.7051,4.5265,4.5265,0,0,1,1.22-.3271q.668-.0864,1.2935-.1455.4936-.0426.85-.0938a1.95,1.95,0,0,0,.5884-.167.7423.7423,0,0,0,.3413-.334,1.3478,1.3478,0,0,0,.1093-.5957.7882.7882,0,0,0-.1455-.4941,1.0276,1.0276,0,0,0-.3632-.2979,1.6751,1.6751,0,0,0-.4869-.1533,3.3088,3.3088,0,0,0-.5156-.0429,3.347,3.347,0,0,0-.69.0722,1.9841,1.9841,0,0,0-.6177.24,1.6186,1.6186,0,0,0-.4649.4209,1.3877,1.3877,0,0,0-.247.6171h-1.2349A2.6218,2.6218,0,0,1,790.9646,522.3446Zm.3486,5.15a1.7136,1.7136,0,0,0,.937.2617,2.3178,2.3178,0,0,0,2.1065-.9883,2.43,2.43,0,0,0,.414-.915q.1092-.4936.24-1.0166h-.0288a1.6857,1.6857,0,0,1-.6612.2685,8.4581,8.4581,0,0,1-.85.1231q-.45.0439-.9077.1094a3.5426,3.5426,0,0,0-.8213.2109,1.5111,1.5111,0,0,0-.5957.4141,1.16,1.16,0,0,0-.2466.748A.8647.8647,0,0,0,791.3132,527.495Z" transform="translate(-743.1665 -457.2498)"/><path d="M802.0573,521.161l-.2324,1.0889h-1.4966l-.93,4.417c-.01.0869-.02.17-.0288.247a1.9839,1.9839,0,0,0-.0147.2471.4026.4026,0,0,0,.2251.3994,1.163,1.163,0,0,0,.5161.1094,1.84,1.84,0,0,0,.3633-.0361,3.0693,3.0693,0,0,0,.3486-.0948l-.2182,1.1329c-.1451.0195-.2906.0361-.4356.0507a4.3305,4.3305,0,0,1-.436.0225,4.06,4.06,0,0,1-.6538-.0508,1.46,1.46,0,0,1-.53-.1894,1.0553,1.0553,0,0,1-.3633-.37,1.1514,1.1514,0,0,1-.1382-.5957,2.0616,2.0616,0,0,1,.022-.3056c.0147-.0967.0313-.2031.0508-.3194l.9883-4.664h-1.2642l.2324-1.0889h1.2642l.4648-2.2236h1.2349l-.4648,2.2236Z" transform="translate(-743.1665 -457.2498)"/><path d="M804.6574,521.161l-1.5693,7.5108h-1.22l1.5547-7.5108Zm-.9589-1.3515.32-1.5108h1.25l-.32,1.5108Z" transform="translate(-743.1665 -457.2498)"/><path d="M805.6814,523.9354a4.5737,4.5737,0,0,1,.8281-1.5107,4.1145,4.1145,0,0,1,1.3223-1.0459,3.86,3.86,0,0,1,1.7651-.3926,3.1646,3.1646,0,0,1,2.3247.792,3.1231,3.1231,0,0,1,.7988,2.3174,5.7423,5.7423,0,0,1-.2759,1.7724,4.6485,4.6485,0,0,1-.8134,1.5186,4.0209,4.0209,0,0,1-1.3076,1.0527,3.818,3.818,0,0,1-1.7583.3926,3.6058,3.6058,0,0,1-1.3291-.2324,2.7559,2.7559,0,0,1-1.62-1.6348,3.517,3.517,0,0,1-.2177-1.2568A5.611,5.611,0,0,1,805.6814,523.9354Zm1.4746,3.2549a1.992,1.992,0,0,0,1.54.5664,2.09,2.09,0,0,0,1.1987-.3486,3.2043,3.2043,0,0,0,.8716-.8789,4.1206,4.1206,0,0,0,.5376-1.1553,4.2192,4.2192,0,0,0,.1817-1.1768,2.8949,2.8949,0,0,0-.1162-.8281,1.7935,1.7935,0,0,0-.3633-.6758,1.7754,1.7754,0,0,0-.6172-.45,2.1264,2.1264,0,0,0-.8789-.1669,2.2428,2.2428,0,0,0-1.25.3486,3.1648,3.1648,0,0,0-.9009.8789,3.9725,3.9725,0,0,0-.5449,1.17,4.462,4.462,0,0,0-.1817,1.22A2.12,2.12,0,0,0,807.156,527.19Z" transform="translate(-743.1665 -457.2498)"/><path d="M816.1926,521.161l-.2324,1.1328h.0293a2.9152,2.9152,0,0,1,1.1767-.98,3.5484,3.5484,0,0,1,1.4966-.3272,2.2973,2.2973,0,0,1,1.5762.4649,1.8845,1.8845,0,0,1,.5161,1.4677,4.4855,4.4855,0,0,1-.0586.6387q-.0579.3926-.16.8281l-.915,4.2862h-1.2354l.959-4.3877c.01-.0772.0244-.167.044-.2686s.0385-.208.0581-.3193.0361-.2178.0508-.32a1.9055,1.9055,0,0,0,.0214-.2539.8884.8884,0,0,0-.3774-.792,1.6324,1.6324,0,0,0-.93-.2539,2.2615,2.2615,0,0,0-1.01.247,2.8728,2.8728,0,0,0-.85.625,2.0294,2.0294,0,0,0-.523.7041,5.2148,5.2148,0,0,0-.3052.8643l-.872,4.1553h-1.22l1.5694-7.5108Z" transform="translate(-743.1665 -457.2498)"/><path d="M826.7629,522.3446a2.752,2.752,0,0,1,.7334-.7627,3.0672,3.0672,0,0,1,.9878-.45,4.5015,4.5015,0,0,1,1.1479-.1455,6.0624,6.0624,0,0,1,1.0459.0869,2.66,2.66,0,0,1,.8721.3057,1.6756,1.6756,0,0,1,.603.5879,1.7815,1.7815,0,0,1,.2251.9375,3.2952,3.2952,0,0,1-.08.69c-.0533.2461-.104.4717-.1524.6748l-.48,2.0488c-.0293.1553-.07.3291-.1235.5235a2.0792,2.0792,0,0,0-.08.5517.5071.5071,0,0,0,.1021.3633.3542.3542,0,0,0,.2612.1016.6208.6208,0,0,0,.1963-.0362c.0727-.0244.1382-.0459.1963-.0654l-.189.9151a2.5186,2.5186,0,0,1-.3706.1093,1.8419,1.8419,0,0,1-.3852.0508,1.01,1.01,0,0,1-.77-.2764.9076.9076,0,0,1-.2031-.77l-.0293-.0293a2.5844,2.5844,0,0,1-.9731.7988,3.6141,3.6141,0,0,1-1.54.2764,3.4706,3.4706,0,0,1-.8935-.1094,1.8251,1.8251,0,0,1-.7193-.3632,1.8,1.8,0,0,1-.4868-.6534,2.3656,2.3656,0,0,1-.1816-.98,2.081,2.081,0,0,1,.3559-1.293,2.2523,2.2523,0,0,1,.9082-.7051,4.5263,4.5263,0,0,1,1.22-.3271q.668-.0864,1.2934-.1455.4937-.0426.85-.0938a1.95,1.95,0,0,0,.5884-.167.7418.7418,0,0,0,.3413-.334,1.3462,1.3462,0,0,0,.1094-.5957.7882.7882,0,0,0-.1455-.4941,1.0289,1.0289,0,0,0-.3633-.2979,1.6735,1.6735,0,0,0-.4868-.1533,3.31,3.31,0,0,0-.5157-.0429,3.347,3.347,0,0,0-.69.0722,1.9851,1.9851,0,0,0-.6177.24,1.62,1.62,0,0,0-.4648.4209,1.3866,1.3866,0,0,0-.2471.6171h-1.2348A2.6232,2.6232,0,0,1,826.7629,522.3446Zm.3486,5.15a1.7137,1.7137,0,0,0,.9371.2617,2.3177,2.3177,0,0,0,2.1064-.9883,2.4315,2.4315,0,0,0,.4141-.915q.109-.4936.24-1.0166H830.78a1.6846,1.6846,0,0,1-.6611.2685,8.4581,8.4581,0,0,1-.85.1231q-.45.0439-.9077.1094a3.5426,3.5426,0,0,0-.8213.2109,1.51,1.51,0,0,0-.5957.4141,1.16,1.16,0,0,0-.2466.748A.8649.8649,0,0,0,827.1115,527.495Z" transform="translate(-743.1665 -457.2498)"/><path d="M837.87,522.4032a1.8893,1.8893,0,0,0-1.1186-.3271,3.9117,3.9117,0,0,0-.5664.0429,1.7812,1.7812,0,0,0-.5161.1533,1.047,1.047,0,0,0-.37.29.7311.7311,0,0,0-.1456.4726.6576.6576,0,0,0,.167.45,1.7269,1.7269,0,0,0,.4507.3487,4.9269,4.9269,0,0,0,.6392.2978q.356.1377.7192.2832.3772.16.7334.3487a3.3456,3.3456,0,0,1,.6323.4287,1.9846,1.9846,0,0,1,.45.5664,1.5981,1.5981,0,0,1,.1744.7627,1.9807,1.9807,0,0,1-.2759,1.0683,2.2354,2.2354,0,0,1-.7119.7188,3.08,3.08,0,0,1-.9805.3994,4.9105,4.9105,0,0,1-1.0972.124,5.4831,5.4831,0,0,1-1.206-.124,2.5244,2.5244,0,0,1-.9517-.4141,2.0031,2.0031,0,0,1-.6318-.7773,2.8082,2.8082,0,0,1-.2324-1.2129h1.22a1.2461,1.2461,0,0,0,.1235.69,1.1828,1.1828,0,0,0,.4214.45,1.8978,1.8978,0,0,0,.625.24,3.7785,3.7785,0,0,0,.748.0722,3.2276,3.2276,0,0,0,.61-.0586,1.8088,1.8088,0,0,0,.5517-.1953,1.191,1.191,0,0,0,.4-.3564.9145.9145,0,0,0,.1524-.5371.6868.6868,0,0,0-.1743-.4727,1.8076,1.8076,0,0,0-.45-.3555,4.5362,4.5362,0,0,0-.6323-.2978c-.2373-.0928-.4771-.1914-.7193-.2979-.2519-.0967-.4961-.2041-.7334-.32a3.0581,3.0581,0,0,1-.6391-.414,1.8419,1.8419,0,0,1-.4507-.5586,1.5764,1.5764,0,0,1-.167-.7413,1.7964,1.7964,0,0,1,.24-.93,2.1,2.1,0,0,1,.6319-.6758,3.0764,3.0764,0,0,1,.8935-.4141,3.67,3.67,0,0,1,1.0244-.1455,4.3261,4.3261,0,0,1,1.0318.124,2.6268,2.6268,0,0,1,.9077.4063,2.1234,2.1234,0,0,1,.6465.7412,2.3135,2.3135,0,0,1,.247,1.1113h-1.2348A1.0409,1.0409,0,0,0,837.87,522.4032Z" transform="translate(-743.1665 -457.2498)"/><path d="M845.33,522.3446a2.7506,2.7506,0,0,1,.7334-.7627,3.0672,3.0672,0,0,1,.9878-.45,4.501,4.501,0,0,1,1.1479-.1455,6.0624,6.0624,0,0,1,1.0459.0869,2.6605,2.6605,0,0,1,.8721.3057,1.6764,1.6764,0,0,1,.603.5879,1.7815,1.7815,0,0,1,.2251.9375,3.289,3.289,0,0,1-.08.69c-.0532.2461-.104.4717-.1523.6748l-.48,2.0488c-.0293.1553-.07.3291-.1235.5235a2.0792,2.0792,0,0,0-.08.5517.5076.5076,0,0,0,.102.3633.3544.3544,0,0,0,.2613.1016.6208.6208,0,0,0,.1963-.0362c.0727-.0244.1382-.0459.1963-.0654l-.189.9151a2.5186,2.5186,0,0,1-.3706.1093,1.8419,1.8419,0,0,1-.3853.0508,1.01,1.01,0,0,1-.77-.2764.9076.9076,0,0,1-.2031-.77l-.0293-.0293a2.5839,2.5839,0,0,1-.9732.7988,3.6133,3.6133,0,0,1-1.54.2764,3.47,3.47,0,0,1-.8935-.1094,1.8251,1.8251,0,0,1-.7193-.3632,1.8,1.8,0,0,1-.4868-.6534,2.3656,2.3656,0,0,1-.1816-.98,2.081,2.081,0,0,1,.3559-1.293,2.2523,2.2523,0,0,1,.9082-.7051,4.5265,4.5265,0,0,1,1.22-.3271q.6679-.0864,1.2935-.1455.4937-.0426.85-.0938a1.95,1.95,0,0,0,.5884-.167.7418.7418,0,0,0,.3413-.334,1.3476,1.3476,0,0,0,.1094-.5957.7888.7888,0,0,0-.1455-.4941,1.0289,1.0289,0,0,0-.3633-.2979,1.6735,1.6735,0,0,0-.4868-.1533,3.31,3.31,0,0,0-.5157-.0429,3.347,3.347,0,0,0-.69.0722,1.9851,1.9851,0,0,0-.6177.24,1.6169,1.6169,0,0,0-.4648.4209,1.3866,1.3866,0,0,0-.2471.6171H844.945A2.6233,2.6233,0,0,1,845.33,522.3446Zm.3486,5.15a1.7136,1.7136,0,0,0,.937.2617,2.3177,2.3177,0,0,0,2.1065-.9883,2.43,2.43,0,0,0,.414-.915q.1092-.4936.24-1.0166h-.0288a1.6844,1.6844,0,0,1-.6612.2685,8.46,8.46,0,0,1-.85.1231q-.45.0439-.9078.1094a3.5439,3.5439,0,0,0-.8213.2109,1.5119,1.5119,0,0,0-.5957.4141,1.1594,1.1594,0,0,0-.2465.748A.8649.8649,0,0,0,845.6789,527.495Z" transform="translate(-743.1665 -457.2498)"/><path d="M861.6389,528.6718l-.3779-5.8409h-.0289l-2.6879,5.8409h-1.3077l-.8862-7.5108h1.3076l.4649,5.9707h.0293l2.7021-5.9707h1.3945l.3633,5.9707h.0293l2.8477-5.9707h1.3364l-3.8789,7.5108Z" transform="translate(-743.1665 -457.2498)"/><path d="M870.1374,518.2987l-.8862,3.9658.0293.0293a2.9158,2.9158,0,0,1,1.1767-.98,3.5488,3.5488,0,0,1,1.4966-.3272,2.2971,2.2971,0,0,1,1.5762.4649,1.8845,1.8845,0,0,1,.5161,1.4677,4.4855,4.4855,0,0,1-.0586.6387q-.0579.3926-.16.8281l-.9151,4.2862h-1.2353l.9589-4.3877c.01-.0772.0245-.167.044-.2686s.0386-.208.0581-.3193.0361-.2178.0508-.32a1.9079,1.9079,0,0,0,.0215-.2539.8885.8885,0,0,0-.3775-.792,1.6324,1.6324,0,0,0-.93-.2539,2.2618,2.2618,0,0,0-1.01.247,2.8728,2.8728,0,0,0-.85.625,2.0294,2.0294,0,0,0-.523.7041,5.2148,5.2148,0,0,0-.3052.8643l-.872,4.1553h-1.22l2.1792-10.3731Z" transform="translate(-743.1665 -457.2498)"/><path d="M875.39,523.9354a4.5737,4.5737,0,0,1,.8281-1.5107,4.1145,4.1145,0,0,1,1.3223-1.0459,3.86,3.86,0,0,1,1.7651-.3926,3.1646,3.1646,0,0,1,2.3247.792,3.1231,3.1231,0,0,1,.7988,2.3174,5.7423,5.7423,0,0,1-.2759,1.7724,4.6485,4.6485,0,0,1-.8134,1.5186,4.0209,4.0209,0,0,1-1.3076,1.0527,3.818,3.818,0,0,1-1.7583.3926,3.6068,3.6068,0,0,1-1.3292-.2324,2.7561,2.7561,0,0,1-1.62-1.6348,3.517,3.517,0,0,1-.2177-1.2568A5.611,5.611,0,0,1,875.39,523.9354Zm1.4746,3.2549a1.992,1.992,0,0,0,1.54.5664,2.09,2.09,0,0,0,1.1987-.3486,3.2043,3.2043,0,0,0,.8716-.8789,4.1206,4.1206,0,0,0,.5376-1.1553,4.2192,4.2192,0,0,0,.1817-1.1768,2.8949,2.8949,0,0,0-.1162-.8281,1.7935,1.7935,0,0,0-.3633-.6758,1.7754,1.7754,0,0,0-.6172-.45,2.1264,2.1264,0,0,0-.8789-.1669,2.2428,2.2428,0,0,0-1.2495.3486,3.1648,3.1648,0,0,0-.9009.8789,3.9725,3.9725,0,0,0-.5449,1.17,4.462,4.462,0,0,0-.1817,1.22A2.12,2.12,0,0,0,876.8645,527.19Z" transform="translate(-743.1665 -457.2498)"/><path d="M886.5407,518.2987l-2.18,10.3731h-1.22l2.1646-10.3731Z" transform="translate(-743.1665 -457.2498)"/><path d="M887.8044,525.94a1.8126,1.8126,0,0,0,.16.7774,1.58,1.58,0,0,0,.436.5664,2.0811,2.0811,0,0,0,.6245.35,2.1677,2.1677,0,0,0,.7266.123,2.3527,2.3527,0,0,0,1.3657-.37,2.1843,2.1843,0,0,0,.7988-1.0684h1.2354a3.2439,3.2439,0,0,1-.4653,1.0967,2.9557,2.9557,0,0,1-.77.7852,3.41,3.41,0,0,1-1.0024.4717,4.165,4.165,0,0,1-1.1621.16,3.7175,3.7175,0,0,1-1.5474-.2832,2.6881,2.6881,0,0,1-.98-.7266,2.6048,2.6048,0,0,1-.5088-.9736,3.8737,3.8737,0,0,1-.1451-1.0244,5.9261,5.9261,0,0,1,.3121-1.9688,4.9122,4.9122,0,0,1,.8427-1.5322,3.7613,3.7613,0,0,1,1.2349-.9883,3.2847,3.2847,0,0,1,1.4746-.3486,3.055,3.055,0,0,1,2.4194.8721,3.61,3.61,0,0,1,.7627,2.4551,3.3151,3.3151,0,0,1-.0439.5517c-.0288.1748-.0532.3154-.0723.4219h-5.6518A4.7877,4.7877,0,0,0,887.8044,525.94Zm4.5254-2.52a1.7934,1.7934,0,0,0-.29-.6826,1.5461,1.5461,0,0,0-.5591-.48,1.84,1.84,0,0,0-.8574-.1816,2.6445,2.6445,0,0,0-.9663.1669,2.3774,2.3774,0,0,0-.7481.4581,2.7222,2.7222,0,0,0-.5376.6748,4.0086,4.0086,0,0,0-.3486.8212h4.3589A2.8087,2.8087,0,0,0,892.33,523.42Z" transform="translate(-743.1665 -457.2498)"/><rect class="cls-1" x="257.1667" y="0.5" width="137.8947" height="86.3158"/><path d="M1063.6369,471a2.2987,2.2987,0,0,0-.5088-.5737,2.35,2.35,0,0,0-.69-.3853,2.3756,2.3756,0,0,0-.8057-.1377,2.6572,2.6572,0,0,0-1.3076.2979,2.47,2.47,0,0,0-.872.7988,3.5029,3.5029,0,0,0-.4864,1.1406,5.6373,5.6373,0,0,0-.1533,1.3223,5.2417,5.2417,0,0,0,.1533,1.271,3.4347,3.4347,0,0,0,.4864,1.1118,2.4925,2.4925,0,0,0,.872.7915,2.6583,2.6583,0,0,0,1.3076.2978,2.1081,2.1081,0,0,0,1.6338-.6391,2.9594,2.9594,0,0,0,.72-1.6856h2.208a5.2581,5.2581,0,0,1-.45,1.7583,4.2015,4.2015,0,0,1-.959,1.3365,4.0841,4.0841,0,0,1-1.3945.8427,5.11,5.11,0,0,1-1.7579.2906,5.3233,5.3233,0,0,1-2.1435-.4141,4.5929,4.5929,0,0,1-1.6055-1.1406,5.0484,5.0484,0,0,1-1.0019-1.7071,6.2663,6.2663,0,0,1-.3487-2.1137,6.4843,6.4843,0,0,1,.3487-2.1577,5.1933,5.1933,0,0,1,1.0019-1.7364,4.5957,4.5957,0,0,1,1.6055-1.1621,5.56,5.56,0,0,1,3.7627-.1743,4.385,4.385,0,0,1,1.3662.7192,3.8993,3.8993,0,0,1,.9951,1.1695,4.1871,4.1871,0,0,1,.4942,1.5981h-2.209A1.8677,1.8677,0,0,0,1063.6369,471Z" transform="translate(-743.1665 -457.2498)"/><path d="M1069.7385,476.8041a2.1148,2.1148,0,0,0,2.4121.1382,1.2945,1.2945,0,0,0,.5518-.6612h1.8164a3.4509,3.4509,0,0,1-1.3369,1.9326,3.9368,3.9368,0,0,1-2.18.5811,4.2949,4.2949,0,0,1-1.5977-.2832,3.3249,3.3249,0,0,1-1.206-.8066,3.6247,3.6247,0,0,1-.7627-1.25,4.56,4.56,0,0,1-.2686-1.5981,4.39,4.39,0,0,1,.2754-1.5688,3.6354,3.6354,0,0,1,1.998-2.0923,3.8865,3.8865,0,0,1,1.5616-.3052,3.57,3.57,0,0,1,1.6709.3706,3.3417,3.3417,0,0,1,1.17.9951,4.0989,4.0989,0,0,1,.6611,1.4238,5.3171,5.3171,0,0,1,.1455,1.6709h-5.42A2.0821,2.0821,0,0,0,1069.7385,476.8041Zm2.332-3.9517a1.4506,1.4506,0,0,0-1.126-.4067,1.7961,1.7961,0,0,0-.8212.167,1.564,1.564,0,0,0-.5225.414,1.5149,1.5149,0,0,0-.2764.523,2.349,2.349,0,0,0-.0947.4941h3.3565A2.384,2.384,0,0,0,1072.0705,472.8524Z" transform="translate(-743.1665 -457.2498)"/><path d="M1077.99,468.2323v10.3735h-2.0625V468.2323Z" transform="translate(-743.1665 -457.2498)"/><path d="M1081.74,468.2323v10.3735h-2.0635V468.2323Z" transform="translate(-743.1665 -457.2498)"/><path d="M1027.1692,504.9686a1.8883,1.8883,0,0,0-1.1182-.3271,3.8928,3.8928,0,0,0-.5664.043,1.7747,1.7747,0,0,0-.5166.1533,1.05,1.05,0,0,0-.37.29.734.734,0,0,0-.1455.4727.6575.6575,0,0,0,.167.45,1.7213,1.7213,0,0,0,.4511.3486,4.8881,4.8881,0,0,0,.6387.2978q.3559.1377.72.2832c.251.1065.4961.2227.7334.3487a3.3342,3.3342,0,0,1,.6319.4287,1.9864,1.9864,0,0,1,.45.5664,1.5988,1.5988,0,0,1,.1748.7627,1.9768,1.9768,0,0,1-.2764,1.0684,2.2251,2.2251,0,0,1-.7119.7187,3.0685,3.0685,0,0,1-.9805.3994,4.9061,4.9061,0,0,1-1.0967.124,5.48,5.48,0,0,1-1.206-.124,2.5282,2.5282,0,0,1-.9522-.414,2.0131,2.0131,0,0,1-.6318-.7774,2.8155,2.8155,0,0,1-.2324-1.2129h1.2207a1.2476,1.2476,0,0,0,.123.69,1.1845,1.1845,0,0,0,.4219.45,1.8849,1.8849,0,0,0,.625.24,3.7785,3.7785,0,0,0,.748.0722,3.2428,3.2428,0,0,0,.61-.0585,1.8137,1.8137,0,0,0,.5517-.1954,1.1848,1.1848,0,0,0,.3995-.3564.915.915,0,0,0,.1523-.5371.6864.6864,0,0,0-.1738-.4727,1.8074,1.8074,0,0,0-.45-.3554,4.5593,4.5593,0,0,0-.6328-.2979c-.2373-.0928-.4766-.1914-.7188-.2978-.2519-.0967-.4961-.2041-.7334-.32a3.0644,3.0644,0,0,1-.64-.414,1.8465,1.8465,0,0,1-.45-.5586,1.5775,1.5775,0,0,1-.167-.7412,1.801,1.801,0,0,1,.2392-.93,2.11,2.11,0,0,1,.6319-.6758,3.0776,3.0776,0,0,1,.8935-.4141,3.6764,3.6764,0,0,1,1.0244-.1455,4.3334,4.3334,0,0,1,1.0323.1241,2.6222,2.6222,0,0,1,.9072.4062,2.1193,2.1193,0,0,1,.6465.7412,2.3079,2.3079,0,0,1,.2471,1.1114h-1.2344A1.0405,1.0405,0,0,0,1027.1692,504.9686Z" transform="translate(-743.1665 -457.2498)"/><path d="M1034.1438,503.7264l-.2325,1.0889h-1.497l-.93,4.417c-.01.0869-.02.17-.0293.2471a1.981,1.981,0,0,0-.0147.247.4023.4023,0,0,0,.2256.3995,1.1638,1.1638,0,0,0,.5157.1093,1.8357,1.8357,0,0,0,.3632-.0361,3.0912,3.0912,0,0,0,.3487-.0947l-.2178,1.1328c-.1455.02-.291.0361-.4356.0508a4.37,4.37,0,0,1-.4365.0224,4.0493,4.0493,0,0,1-.6533-.0508,1.4525,1.4525,0,0,1-.53-.1894,1.0558,1.0558,0,0,1-.3633-.37,1.1477,1.1477,0,0,1-.1386-.5957,2.062,2.062,0,0,1,.0224-.3057c.0147-.0967.0313-.2031.0508-.3193l.9883-4.6641h-1.2646l.2324-1.0889h1.2646l.4649-2.2236h1.2343l-.4648,2.2236Z" transform="translate(-743.1665 -457.2498)"/><path d="M1038.7922,511.2372l.2324-1.1328h-.0293a2.8611,2.8611,0,0,1-1.1767.9736,3.6162,3.6162,0,0,1-1.4961.3193,2.3171,2.3171,0,0,1-1.5762-.458,1.8558,1.8558,0,0,1-.5166-1.46,4.5223,4.5223,0,0,1,.0586-.64q.0571-.391.16-.8281l.915-4.2852h1.2344l-.958,4.3877q-.0294.1011-.0586.2608c-.02.1074-.0391.2158-.0576.3271s-.0342.2178-.044.3194-.0146.1875-.0146.2548a.8876.8876,0,0,0,.3779.792,1.6307,1.6307,0,0,0,.93.2539,2.2818,2.2818,0,0,0,.9658-.2031,2.7808,2.7808,0,0,0,.792-.5449,3.2684,3.2684,0,0,0,.5889-.7852,3.456,3.456,0,0,0,.3408-.9072l.872-4.1553h1.2354l-1.584,7.5108Z" transform="translate(-743.1665 -457.2498)"/><path d="M1042.54,504.8153l.2187-1.0889h1.2783q.1451-.5669.2686-1.1049a3.554,3.554,0,0,1,.3564-.9517,1.8113,1.8113,0,0,1,.6465-.668,2.2069,2.2069,0,0,1,1.1543-.2544c.1748,0,.3486.0074.5234.022a2.5387,2.5387,0,0,1,.5088.0943l-.2041,1.0458c-.1064-.019-.208-.0361-.3047-.0507a1.8325,1.8325,0,0,0-.2763-.0215,1.2384,1.2384,0,0,0-.6973.167,1.15,1.15,0,0,0-.3848.4355,2.2607,2.2607,0,0,0-.2031.603q-.0658.3356-.167.6836h1.4375l-.2031,1.0889h-1.4531l-1.38,6.4219h-1.2354l1.3955-6.4219Z" transform="translate(-743.1665 -457.2498)"/><path d="M1046.5793,504.8153l.2188-1.0889h1.2783q.1451-.5669.2685-1.1049a3.5575,3.5575,0,0,1,.3565-.9517,1.8113,1.8113,0,0,1,.6465-.668,2.2069,2.2069,0,0,1,1.1543-.2544c.1748,0,.3486.0074.5234.022a2.54,2.54,0,0,1,.5088.0943l-.2041,1.0458c-.1065-.019-.208-.0361-.3047-.0507a1.8348,1.8348,0,0,0-.2764-.0215,1.2381,1.2381,0,0,0-.6972.167,1.1494,1.1494,0,0,0-.3848.4355,2.2572,2.2572,0,0,0-.2031.603q-.066.3356-.167.6836h1.4375l-.2031,1.0889h-1.4532l-1.38,6.4219h-1.2354l1.3955-6.4219Z" transform="translate(-743.1665 -457.2498)"/><path d="M1055.6242,504.91a2.7463,2.7463,0,0,1,.7334-.7627,3.0616,3.0616,0,0,1,.9873-.45,4.5072,4.5072,0,0,1,1.1485-.1455,6.0531,6.0531,0,0,1,1.0459.087,2.6609,2.6609,0,0,1,.872.3056,1.6792,1.6792,0,0,1,.6026.5879,1.7773,1.7773,0,0,1,.2256.9375,3.3285,3.3285,0,0,1-.08.69c-.0537.2461-.1045.4717-.1524.6748l-.4794,2.0489c-.0293.1552-.07.3291-.1241.5234a2.1008,2.1008,0,0,0-.08.5518.5042.5042,0,0,0,.1025.3632.3532.3532,0,0,0,.2607.1016.6179.6179,0,0,0,.1963-.0361c.0733-.0244.1387-.0459.1963-.0655l-.1885.9151a2.5346,2.5346,0,0,1-.3711.1094,1.8359,1.8359,0,0,1-.3847.0507,1.0116,1.0116,0,0,1-.7705-.2763.91.91,0,0,1-.2032-.77l-.0293-.0293a2.5831,2.5831,0,0,1-.9726.7989,3.6171,3.6171,0,0,1-1.54.2763,3.47,3.47,0,0,1-.8936-.1093,1.8316,1.8316,0,0,1-.72-.3633,1.8033,1.8033,0,0,1-.4864-.6533,2.3677,2.3677,0,0,1-.1816-.9805,2.0812,2.0812,0,0,1,.3555-1.293,2.2516,2.2516,0,0,1,.9082-.7051,4.5292,4.5292,0,0,1,1.2207-.3271q.668-.0864,1.2929-.1455.4937-.0425.85-.0938a1.9569,1.9569,0,0,0,.5888-.1669.7435.7435,0,0,0,.3408-.334,1.34,1.34,0,0,0,.1094-.5957.7885.7885,0,0,0-.1455-.4942,1.0275,1.0275,0,0,0-.3633-.2978,1.6642,1.6642,0,0,0-.4863-.1533,3.308,3.308,0,0,0-.5156-.043,3.3535,3.3535,0,0,0-.6905.0722,1.9865,1.9865,0,0,0-.6171.24,1.6121,1.6121,0,0,0-.4649.4209,1.3813,1.3813,0,0,0-.2471.6172h-1.2353A2.624,2.624,0,0,1,1055.6242,504.91Zm.3487,5.15a1.7107,1.7107,0,0,0,.9365.2617,2.3166,2.3166,0,0,0,2.1064-.9882,2.4249,2.4249,0,0,0,.4141-.9151q.11-.4936.24-1.0166h-.0293a1.6784,1.6784,0,0,1-.6611.2686,8.4983,8.4983,0,0,1-.85.123q-.4512.044-.9082.1094a3.5593,3.5593,0,0,0-.8213.2109,1.5111,1.5111,0,0,0-.5957.4141,1.1593,1.1593,0,0,0-.2461.748A.8647.8647,0,0,0,1055.9729,510.06Z" transform="translate(-743.1665 -457.2498)"/><path d="M1065.3654,500.8637l-.7988,3.7924.0283.0284a3,3,0,0,1,1.01-.835,2.812,2.812,0,0,1,1.2861-.2979,3.2594,3.2594,0,0,1,1.3077.24,2.5012,2.5012,0,0,1,.915.66,2.7762,2.7762,0,0,1,.5449,1.0176,4.5234,4.5234,0,0,1,.1817,1.3223,5.64,5.64,0,0,1-.2618,1.7138,4.4991,4.4991,0,0,1-.7695,1.4678,3.951,3.951,0,0,1-1.2422,1.0313,3.5342,3.5342,0,0,1-1.6924.3925,3.1683,3.1683,0,0,1-.9589-.1377,3.0041,3.0041,0,0,1-.7627-.3564,2.2109,2.2109,0,0,1-.5381-.4941,1.3624,1.3624,0,0,1-.2686-.5664h-.0293l-.2754,1.3945h-1.09l2.1787-10.3735Zm3.1309,5.0854a2.1192,2.1192,0,0,0-.3193-.6826,1.5073,1.5073,0,0,0-.53-.458,1.6123,1.6123,0,0,0-.7559-.167,2.5373,2.5373,0,0,0-1.3945.37,3.1369,3.1369,0,0,0-.9521.9375,4.157,4.157,0,0,0-.545,1.2344,5.021,5.021,0,0,0-.1738,1.2646,1.7324,1.7324,0,0,0,.5664,1.38,2.1763,2.1763,0,0,0,1.4824.4941,2.0328,2.0328,0,0,0,1.1768-.3486,3.21,3.21,0,0,0,.8574-.8721,3.976,3.976,0,0,0,.5225-1.1474,4.3393,4.3393,0,0,0,.1748-1.1621A3.15,3.15,0,0,0,1068.4963,505.9491Z" transform="translate(-743.1665 -457.2498)"/><path d="M1071.1545,506.5009a4.5879,4.5879,0,0,1,.8281-1.5108,4.1158,4.1158,0,0,1,1.3223-1.0459,3.8627,3.8627,0,0,1,1.7656-.3926,3.1634,3.1634,0,0,1,2.3242.792,3.1213,3.1213,0,0,1,.7989,2.3174,5.7575,5.7575,0,0,1-.2754,1.7725,4.6689,4.6689,0,0,1-.8135,1.5185,4.0254,4.0254,0,0,1-1.3076,1.0528,3.82,3.82,0,0,1-1.7588.3925,3.61,3.61,0,0,1-1.3291-.2324,2.7563,2.7563,0,0,1-1.62-1.6347,3.5264,3.5264,0,0,1-.2178-1.2569A5.6247,5.6247,0,0,1,1071.1545,506.5009Zm1.4746,3.2548a1.9926,1.9926,0,0,0,1.54.5664,2.0915,2.0915,0,0,0,1.1992-.3486,3.2039,3.2039,0,0,0,.8711-.8789,4.1219,4.1219,0,0,0,.5381-1.1553,4.2188,4.2188,0,0,0,.1816-1.1767,2.9125,2.9125,0,0,0-.1162-.8281,1.8032,1.8032,0,0,0-.3633-.6758,1.7766,1.7766,0,0,0-.6172-.45,2.1244,2.1244,0,0,0-.8789-.167,2.2445,2.2445,0,0,0-1.25.3486,3.1631,3.1631,0,0,0-.9.8789,3.9725,3.9725,0,0,0-.5449,1.17,4.4624,4.4624,0,0,0-.1816,1.22A2.12,2.12,0,0,0,1072.6291,509.7557Z" transform="translate(-743.1665 -457.2498)"/><path d="M1083.7434,511.2372l.2324-1.1328h-.0283a2.8741,2.8741,0,0,1-1.1768.9736,3.617,3.617,0,0,1-1.497.3193,2.317,2.317,0,0,1-1.5762-.458,1.8586,1.8586,0,0,1-.5156-1.46,4.6509,4.6509,0,0,1,.0576-.64q.0585-.391.16-.8281l.9151-4.2852h1.2353l-.959,4.3877a2.5264,2.5264,0,0,0-.0576.2608c-.02.1074-.039.2158-.0586.3271s-.0342.2178-.0439.3194-.0137.1875-.0137.2548a.887.887,0,0,0,.377.792,1.6306,1.6306,0,0,0,.93.2539,2.286,2.286,0,0,0,.9668-.2031,2.7934,2.7934,0,0,0,.792-.5449,3.2363,3.2363,0,0,0,.5879-.7852,3.4522,3.4522,0,0,0,.3418-.9072l.8711-4.1553h1.2354l-1.584,7.5108Z" transform="translate(-743.1665 -457.2498)"/><path d="M1091.7492,503.7264l-.2324,1.0889h-1.4961l-.9306,4.417c-.01.0869-.02.17-.0284.2471a2.0009,2.0009,0,0,0-.0146.247.4031.4031,0,0,0,.2246.3995,1.165,1.165,0,0,0,.5166.1093,1.8435,1.8435,0,0,0,.3633-.0361,3.09,3.09,0,0,0,.3486-.0947l-.2187,1.1328c-.1446.02-.29.0361-.4356.0508a4.35,4.35,0,0,1-.4355.0224,4.07,4.07,0,0,1-.6543-.0508,1.4586,1.4586,0,0,1-.53-.1894,1.0558,1.0558,0,0,1-.3633-.37,1.1567,1.1567,0,0,1-.1377-.5957,2.0642,2.0642,0,0,1,.0215-.3057c.0147-.0967.0313-.2031.0508-.3193l.9883-4.6641h-1.2637l.2324-1.0889h1.2637l.4648-2.2236h1.2354l-.4649,2.2236Z" transform="translate(-743.1665 -457.2498)"/><path d="M1100.3645,503.7264l-.2325,1.0889h-1.496l-.9307,4.417c-.01.0869-.02.17-.0283.2471a1.981,1.981,0,0,0-.0147.247.4031.4031,0,0,0,.2246.3995,1.165,1.165,0,0,0,.5166.1093,1.8435,1.8435,0,0,0,.3633-.0361,3.09,3.09,0,0,0,.3486-.0947l-.2187,1.1328c-.1445.02-.29.0361-.4355.0508a4.3536,4.3536,0,0,1-.4356.0224,4.0711,4.0711,0,0,1-.6543-.0508,1.4592,1.4592,0,0,1-.53-.1894,1.0547,1.0547,0,0,1-.3632-.37,1.1567,1.1567,0,0,1-.1377-.5957,2.0644,2.0644,0,0,1,.0214-.3057c.0147-.0967.0313-.2031.0508-.3193l.9883-4.6641h-1.2637l.2325-1.0889h1.2636l.4649-2.2236h1.2353l-.4648,2.2236Z" transform="translate(-743.1665 -457.2498)"/><path d="M1103.5891,500.8637l-.8858,3.9663.0293.0293a2.9164,2.9164,0,0,1,1.1768-.9805,3.5475,3.5475,0,0,1,1.4961-.3272,2.2973,2.2973,0,0,1,1.5762.4649,1.8847,1.8847,0,0,1,.5166,1.4678,4.5,4.5,0,0,1-.0586.6386c-.0391.2617-.0918.5381-.16.8282l-.915,4.2861h-1.2354l.959-4.3877c.01-.0772.0244-.167.0439-.2686s.0391-.208.0586-.3193.0362-.2178.0508-.32a1.978,1.978,0,0,0,.0215-.2539.8878.8878,0,0,0-.3779-.792,1.6309,1.6309,0,0,0-.93-.2539,2.2591,2.2591,0,0,0-1.01.2471,2.8693,2.8693,0,0,0-.85.625,2.03,2.03,0,0,0-.5234.7041,5.2,5.2,0,0,0-.3047.8642l-.8721,4.1553h-1.2207l2.18-10.3735Z" transform="translate(-743.1665 -457.2498)"/><path d="M1109.6916,508.5057a1.8124,1.8124,0,0,0,.16.7774,1.5839,1.5839,0,0,0,.4355.5664,2.0837,2.0837,0,0,0,.625.35,2.1677,2.1677,0,0,0,.7266.123,2.3521,2.3521,0,0,0,1.3652-.37,2.181,2.181,0,0,0,.7988-1.0683h1.2354a3.2427,3.2427,0,0,1-.4648,1.0966,2.9485,2.9485,0,0,1-.7706.7852,3.4013,3.4013,0,0,1-1.0019.4717,4.1676,4.1676,0,0,1-1.1621.16,3.7216,3.7216,0,0,1-1.5479-.2832,2.6964,2.6964,0,0,1-.98-.7265,2.6132,2.6132,0,0,1-.5088-.9737,3.8724,3.8724,0,0,1-.1446-1.0244,5.938,5.938,0,0,1,.3116-1.9687,4.9212,4.9212,0,0,1,.8427-1.5322,3.76,3.76,0,0,1,1.2354-.9883,3.2819,3.2819,0,0,1,1.4746-.3487,3.0542,3.0542,0,0,1,2.4189.8721,3.6073,3.6073,0,0,1,.7627,2.4551,3.3151,3.3151,0,0,1-.0439.5517c-.0283.1748-.0527.3155-.0723.4219h-5.6513A4.7872,4.7872,0,0,0,1109.6916,508.5057Zm4.5254-2.52a1.7855,1.7855,0,0,0-.29-.6826,1.5529,1.5529,0,0,0-.56-.4795,1.84,1.84,0,0,0-.8574-.1816,2.6378,2.6378,0,0,0-.9658.167,2.37,2.37,0,0,0-.7481.458,2.7241,2.7241,0,0,0-.5381.6748,4.0655,4.0655,0,0,0-.3486.8213h4.3594A2.81,2.81,0,0,0,1114.217,505.9852Z" transform="translate(-743.1665 -457.2498)"/><path d="M1028.5578,521.161l-1.5693,7.5108h-1.2207l1.5547-7.5108Zm-.959-1.3515.3194-1.5108h1.25l-.32,1.5108Z" transform="translate(-743.1665 -457.2498)"/><path d="M1031.7531,521.161l-.2324,1.1328h.0293a2.9161,2.9161,0,0,1,1.1768-.98,3.5486,3.5486,0,0,1,1.497-.3272,2.2969,2.2969,0,0,1,1.5762.4649,1.884,1.884,0,0,1,.5156,1.4677,4.4855,4.4855,0,0,1-.0586.6387c-.038.2617-.0917.5381-.1591.8281l-.9151,4.2862h-1.2353l.959-4.3877c.01-.0772.0244-.167.0439-.2686s.0381-.208.0576-.3193.0362-.2178.0508-.32a1.8117,1.8117,0,0,0,.0215-.2539.8892.8892,0,0,0-.377-.792,1.6339,1.6339,0,0,0-.9306-.2539,2.2635,2.2635,0,0,0-1.01.247,2.8728,2.8728,0,0,0-.85.625,2.0281,2.0281,0,0,0-.5225.7041,5.2161,5.2161,0,0,0-.3056.8643l-.8721,4.1553h-1.22l1.5693-7.5108Z" transform="translate(-743.1665 -457.2498)"/><path d="M1042.5774,528.6718l.2617-1.0752h-.0293a2.992,2.992,0,0,1-1.1406.9814,3.3643,3.3643,0,0,1-1.3438.2539,3.3184,3.3184,0,0,1-1.2637-.2256,2.6218,2.6218,0,0,1-.93-.624,2.5548,2.5548,0,0,1-.5664-.9668,3.931,3.931,0,0,1-.1894-1.249,5.3782,5.3782,0,0,1,.2832-1.707,5.1191,5.1191,0,0,1,.8135-1.5333,4.2228,4.2228,0,0,1,1.3076-1.1113,3.6021,3.6021,0,0,1,1.7656-.4287,3.9858,3.9858,0,0,1,.7119.0654,2.8177,2.8177,0,0,1,.69.2178,1.9164,1.9164,0,0,1,.5732.4072,1.5282,1.5282,0,0,1,.3633.6319h.0293l.7988-4.01h1.2207l-2.1934,10.3731Zm-3.5088-1.4532a1.834,1.834,0,0,0,1.4746.5381,2.2222,2.2222,0,0,0,1.25-.3633,3.2543,3.2543,0,0,0,.9228-.915,4.6557,4.6557,0,0,0,.7627-2.4561,2.0287,2.0287,0,0,0-.4873-1.3945,1.7685,1.7685,0,0,0-1.4013-.5517,2.414,2.414,0,0,0-1.293.3408,3.159,3.159,0,0,0-.9307.88,3.9659,3.9659,0,0,0-.5664,1.1914,4.5843,4.5843,0,0,0-.1885,1.2783A2.1654,2.1654,0,0,0,1039.0686,527.2186Z" transform="translate(-743.1665 -457.2498)"/><path d="M1048.4758,521.161l-1.5693,7.5108h-1.22l1.5547-7.5108Zm-.959-1.3515.32-1.5108h1.2491l-.3194,1.5108Z" transform="translate(-743.1665 -457.2498)"/><path d="M1050.6555,528.6718l-1.0752-7.5108h1.3076l.6387,6.2471h.0293l3.2549-6.2471h1.3359l-4.17,7.5108Z" transform="translate(-743.1665 -457.2498)"/><path d="M1058.69,521.161l-1.5694,7.5108H1055.9l1.5547-7.5108Zm-.959-1.3515.3193-1.5108h1.25l-.32,1.5108Z" transform="translate(-743.1665 -457.2498)"/><path d="M1064.6311,528.6718l.2617-1.0752h-.0293a2.992,2.992,0,0,1-1.1406.9814,3.3643,3.3643,0,0,1-1.3438.2539,3.3184,3.3184,0,0,1-1.2637-.2256,2.6205,2.6205,0,0,1-.93-.624,2.5535,2.5535,0,0,1-.5664-.9668,3.9281,3.9281,0,0,1-.1895-1.249,5.3782,5.3782,0,0,1,.2832-1.707,5.1213,5.1213,0,0,1,.8135-1.5333,4.2228,4.2228,0,0,1,1.3076-1.1113,3.6024,3.6024,0,0,1,1.7656-.4287,3.9858,3.9858,0,0,1,.7119.0654,2.8177,2.8177,0,0,1,.69.2178,1.9164,1.9164,0,0,1,.5732.4072,1.5282,1.5282,0,0,1,.3633.6319h.0293l.7988-4.01h1.2207l-2.1933,10.3731Zm-3.5088-1.4532a1.8342,1.8342,0,0,0,1.4746.5381,2.2222,2.2222,0,0,0,1.25-.3633,3.253,3.253,0,0,0,.9228-.915,4.6533,4.6533,0,0,0,.7627-2.4561,2.0287,2.0287,0,0,0-.4873-1.3945,1.7685,1.7685,0,0,0-1.4013-.5517,2.414,2.414,0,0,0-1.293.3408,3.16,3.16,0,0,0-.9307.88,3.9659,3.9659,0,0,0-.5664,1.1914,4.5878,4.5878,0,0,0-.1884,1.2783A2.1653,2.1653,0,0,0,1061.1223,527.2186Z" transform="translate(-743.1665 -457.2498)"/><path d="M1072.5783,528.6718l.2325-1.1329h-.0284a2.8733,2.8733,0,0,1-1.1767.9737,3.6174,3.6174,0,0,1-1.4971.3193,2.3173,2.3173,0,0,1-1.5762-.458,1.8591,1.8591,0,0,1-.5156-1.46,4.651,4.651,0,0,1,.0576-.64q.0586-.3911.16-.8281l.915-4.2852h1.2354l-.959,4.3877a2.5,2.5,0,0,0-.0576.2608c-.02.1074-.0391.2158-.0586.3271s-.0342.2178-.044.3193-.0136.1875-.0136.2549a.8872.8872,0,0,0,.3769.792,1.6309,1.6309,0,0,0,.93.2539,2.2878,2.2878,0,0,0,.9668-.2031,2.7968,2.7968,0,0,0,.792-.5449,3.2408,3.2408,0,0,0,.5879-.7852,3.4592,3.4592,0,0,0,.3418-.9072l.8711-4.1553h1.2353l-1.584,7.5108Z" transform="translate(-743.1665 -457.2498)"/><path d="M1077.0315,522.3446a2.7562,2.7562,0,0,1,.7334-.7627,3.0752,3.0752,0,0,1,.9882-.45,4.5007,4.5007,0,0,1,1.1475-.1455,6.0624,6.0624,0,0,1,1.0459.0869,2.6564,2.6564,0,0,1,.8721.3057,1.6746,1.6746,0,0,1,.6035.5879,1.7862,1.7862,0,0,1,.2246.9375,3.2627,3.2627,0,0,1-.08.69c-.0527.2461-.1035.4717-.1523.6748l-.4795,2.0488c-.0293.1553-.07.3291-.1231.5235a2.0587,2.0587,0,0,0-.08.5517.51.51,0,0,0,.1015.3633.3555.3555,0,0,0,.2617.1016.6247.6247,0,0,0,.1963-.0362c.0723-.0244.1377-.0459.1963-.0654l-.1894.9151a2.508,2.508,0,0,1-.37.1093,1.8444,1.8444,0,0,1-.3857.0508,1.0074,1.0074,0,0,1-.77-.2764.9063.9063,0,0,1-.2032-.77l-.0292-.0293a2.587,2.587,0,0,1-.9737.7988,3.6124,3.6124,0,0,1-1.54.2764,3.4763,3.4763,0,0,1-.8936-.1094,1.82,1.82,0,0,1-.7187-.3632,1.7956,1.7956,0,0,1-.4873-.6534,2.3655,2.3655,0,0,1-.1817-.98,2.081,2.081,0,0,1,.3565-1.293,2.2516,2.2516,0,0,1,.9082-.7051,4.5219,4.5219,0,0,1,1.22-.3271q.6679-.0864,1.294-.1455.4936-.0426.85-.0938a1.9427,1.9427,0,0,0,.5879-.167.74.74,0,0,0,.3417-.334,1.3533,1.3533,0,0,0,.1094-.5957.7882.7882,0,0,0-.1455-.4941,1.0289,1.0289,0,0,0-.3633-.2979,1.6768,1.6768,0,0,0-.4873-.1533,3.3,3.3,0,0,0-.5156-.0429,3.3422,3.3422,0,0,0-.6894.0722,1.987,1.987,0,0,0-.6182.24,1.6251,1.6251,0,0,0-.4649.4209,1.3923,1.3923,0,0,0-.247.6171h-1.2344A2.6214,2.6214,0,0,1,1077.0315,522.3446Zm.3486,5.15a1.7165,1.7165,0,0,0,.9375.2617,2.3187,2.3187,0,0,0,2.1064-.9883,2.4377,2.4377,0,0,0,.4141-.915q.1085-.4936.2393-1.0166h-.0284a1.6909,1.6909,0,0,1-.6611.2685,8.4476,8.4476,0,0,1-.8506.1231q-.45.0439-.9072.1094a3.536,3.536,0,0,0-.8213.2109,1.5111,1.5111,0,0,0-.5957.4141,1.16,1.16,0,0,0-.2471.748A.8647.8647,0,0,0,1077.38,527.495Z" transform="translate(-743.1665 -457.2498)"/><path d="M1086.759,518.2987l-2.18,10.3731h-1.2207l2.1651-10.3731Z" transform="translate(-743.1665 -457.2498)"/><path d="M1096.3039,522.4608a1.6592,1.6592,0,0,0-1.1621-.3847,2.4393,2.4393,0,0,0-1.2568.3193,2.9965,2.9965,0,0,0-.916.8281,3.7392,3.7392,0,0,0-.5586,1.1406,4.3285,4.3285,0,0,0-.1895,1.2422,3.5044,3.5044,0,0,0,.0947.8282,1.8263,1.8263,0,0,0,.3125.6826,1.5548,1.5548,0,0,0,.5733.4648,1.9925,1.9925,0,0,0,.88.1748,2.2277,2.2277,0,0,0,1.3652-.4209,2.4149,2.4149,0,0,0,.8281-1.1191h1.2354a3.433,3.433,0,0,1-1.2207,1.9472,3.5641,3.5641,0,0,1-2.208.668,2.9988,2.9988,0,0,1-2.3174-.8428,3.3824,3.3824,0,0,1-.7774-2.3828,5.5457,5.5457,0,0,1,.2686-1.7285,4.4654,4.4654,0,0,1,.7988-1.4746,3.9081,3.9081,0,0,1,1.3076-1.0322,3.97,3.97,0,0,1,1.78-.3848,3.0918,3.0918,0,0,1,2.0264.6172,2.4866,2.4866,0,0,1,.792,1.9394h-1.2354A1.3936,1.3936,0,0,0,1096.3039,522.4608Z" transform="translate(-743.1665 -457.2498)"/><path d="M1099.8635,525.94a1.8125,1.8125,0,0,0,.1592.7774,1.576,1.576,0,0,0,.4365.5664,2.0785,2.0785,0,0,0,.624.35,2.1677,2.1677,0,0,0,.7266.123,2.3533,2.3533,0,0,0,1.3662-.37,2.1872,2.1872,0,0,0,.7988-1.0684h1.2354a3.2445,3.2445,0,0,1-.4658,1.0967,2.9615,2.9615,0,0,1-.77.7852,3.419,3.419,0,0,1-1.0029.4717,4.1624,4.1624,0,0,1-1.1621.16,3.7134,3.7134,0,0,1-1.5469-.2832,2.6809,2.6809,0,0,1-.98-.7266,2.5988,2.5988,0,0,1-.5087-.9736,3.8749,3.8749,0,0,1-.1456-1.0244,5.9158,5.9158,0,0,1,.3125-1.9688,4.9043,4.9043,0,0,1,.8428-1.5322,3.7585,3.7585,0,0,1,1.2344-.9883,3.2862,3.2862,0,0,1,1.4746-.3486,3.0563,3.0563,0,0,1,2.42.8721,3.6123,3.6123,0,0,1,.7627,2.4551,3.3151,3.3151,0,0,1-.0439.5517c-.0293.1748-.0537.3154-.0723.4219h-5.6523A4.7881,4.7881,0,0,0,1099.8635,525.94Zm4.5254-2.52a1.8019,1.8019,0,0,0-.291-.6826,1.54,1.54,0,0,0-.5586-.48,1.84,1.84,0,0,0-.8574-.1816,2.6492,2.6492,0,0,0-.9668.1669,2.383,2.383,0,0,0-.7481.4581,2.72,2.72,0,0,0-.5371.6748,3.9541,3.9541,0,0,0-.3486.8212h4.3584A2.8085,2.8085,0,0,0,1104.3889,523.42Z" transform="translate(-743.1665 -457.2498)"/><path d="M1109.6262,518.2987l-2.18,10.3731h-1.22l2.164-10.3731Z" transform="translate(-743.1665 -457.2498)"/><path d="M1112.8518,518.2987l-2.18,10.3731h-1.2207l2.165-10.3731Z" transform="translate(-743.1665 -457.2498)"/><line class="cls-2" x1="163.3072" y1="43.6579" x2="248.2121" y2="43.6579"/><polygon class="cls-3" points="243.999 49.213 246.359 43.658 243.999 38.103 257.167 43.658 243.999 49.213"/><path class="cls-3" d="M940.2512,487.038h1.3682l-.6719,3.24h.0239a2.5947,2.5947,0,0,1,.9-.7558,2.4373,2.4373,0,0,1,1.14-.2881,1.8627,1.8627,0,0,1,1.374.4438,1.6357,1.6357,0,0,1,.4385,1.2q0,.1685-.0118.3838a2.5561,2.5561,0,0,1-.0488.3843l-.8271,3.96h-1.3682l.792-3.8281c.0234-.1035.0459-.2041.0654-.3a1.3922,1.3922,0,0,0,.03-.2759c0-.0483-.002-.122-.0059-.2221a.6792.6792,0,0,0-.09-.3.6943.6943,0,0,0-.2822-.2583,1.2161,1.2161,0,0,0-.57-.108,1.4876,1.4876,0,0,0-.7255.1739,2.4955,2.4955,0,0,0-.57.4262,2.2013,2.2013,0,0,0-.4136.5938,3.2386,3.2386,0,0,0-.2583.7383l-.6958,3.36h-1.3682Z" transform="translate(-743.1665 -457.2498)"/><path class="cls-3" d="M950.883,493.806c-.0244.1118-.05.22-.0781.3238a1.102,1.102,0,0,0-.042.288.3058.3058,0,0,0,.0606.2042.2854.2854,0,0,0,.2275.0717.9821.9821,0,0,0,.24-.03,1.6524,1.6524,0,0,1,.24-.0419l-.2168.9838q-.2637.06-.5274.1138a2.6887,2.6887,0,0,1-.54.0542.8029.8029,0,0,1-.5762-.2158.8345.8345,0,0,1-.2519-.5762,2.5032,2.5032,0,0,1-.96.6,3.4142,3.4142,0,0,1-1.1279.1919,2.4682,2.4682,0,0,1-.7325-.1079,2.0134,2.0134,0,0,1-.6181-.312,1.4548,1.4548,0,0,1-.4258-.5161,1.5952,1.5952,0,0,1-.1562-.72,1.9675,1.9675,0,0,1,.2167-.9663,1.8959,1.8959,0,0,1,.5752-.6421,2.53,2.53,0,0,1,.8282-.3715,5.4917,5.4917,0,0,1,.9843-.1563q.6958-.0476,1.3682-.1079a.7136.7136,0,0,0,.5459-.2461.9006.9006,0,0,0,.1738-.57.5953.5953,0,0,0-.3115-.5943,1.6821,1.6821,0,0,0-.7324-.15,2.2817,2.2817,0,0,0-.99.1978,1.085,1.085,0,0,0-.5577.7744h-1.2959a2.52,2.52,0,0,1,.3721-.9663,2.2281,2.2281,0,0,1,.6475-.6357,2.5722,2.5722,0,0,1,.87-.3482,5.0558,5.0558,0,0,1,1.0381-.102,4.2276,4.2276,0,0,1,1.3144.1621,1.7566,1.7566,0,0,1,.6953.39.9451.9451,0,0,1,.27.4736,2.291,2.291,0,0,1,.0479.4141,4.2769,4.2769,0,0,1-.12.936Zm-4.1162.0957a.653.653,0,0,0,.1026.378.7679.7679,0,0,0,.2578.24,1.1923,1.1923,0,0,0,.3476.1318,1.766,1.766,0,0,0,.3838.042,1.9071,1.9071,0,0,0,.8467-.1679,1.5779,1.5779,0,0,0,.5635-.4561,2.2076,2.2076,0,0,0,.3486-.6777,5.6409,5.6409,0,0,0,.1973-.834l-.0235-.0239a.8061.8061,0,0,1-.3838.2036,3.2842,3.2842,0,0,1-.4687.084c-.1914.0161-.4141.0322-.666.0483a3.0609,3.0609,0,0,0-.708.126,1.4857,1.4857,0,0,0-.5635.312A.7558.7558,0,0,0,946.7668,493.9017Z" transform="translate(-743.1665 -457.2498)"/><path class="cls-3" d="M956.427,491.2137a.7739.7739,0,0,0-.3545-.684,1.649,1.649,0,0,0-.8936-.2159,2.0552,2.0552,0,0,0-.39.0362,1.0184,1.0184,0,0,0-.336.126.685.685,0,0,0-.24.24.72.72,0,0,0-.09.3779.4259.4259,0,0,0,.1621.3482,1.5314,1.5314,0,0,0,.4258.2339q.2636.1025.5878.1923t.6475.21q.2769.1077.54.24a1.85,1.85,0,0,1,.462.3242,1.4678,1.4678,0,0,1,.3183.456,1.5258,1.5258,0,0,1,.12.6358,1.7065,1.7065,0,0,1-.24.9238,2.0582,2.0582,0,0,1-.624.6362,2.6834,2.6834,0,0,1-.8819.3662,4.4938,4.4938,0,0,1-1.0019.1138,4.7345,4.7345,0,0,1-1.0078-.102,2.21,2.21,0,0,1-.8164-.3482,1.7216,1.7216,0,0,1-.5518-.66,2.4815,2.4815,0,0,1-.2158-1.05h1.2959a.8576.8576,0,0,0,.3721.8339,1.8544,1.8544,0,0,0,.9961.2461,2.4053,2.4053,0,0,0,.4433-.042,1.5745,1.5745,0,0,0,.4209-.1377.8724.8724,0,0,0,.3174-.27.7284.7284,0,0,0,.126-.438.5074.5074,0,0,0-.1739-.396,1.5791,1.5791,0,0,0-.4443-.27,5.121,5.121,0,0,0-.6113-.21q-.3428-.096-.666-.2164a3.5392,3.5392,0,0,1-.5225-.228,1.9372,1.9372,0,0,1-.4375-.3179,1.329,1.329,0,0,1-.3008-.4379,1.529,1.529,0,0,1-.1074-.6,1.6081,1.6081,0,0,1,.2217-.8638,1.8214,1.8214,0,0,1,.582-.5884,2.6634,2.6634,0,0,1,.8164-.3359,4.05,4.05,0,0,1,.9356-.1079,4.8,4.8,0,0,1,.9482.09,2.0666,2.0666,0,0,1,.7734.3184,1.5414,1.5414,0,0,1,.5166.6118,2.0963,2.0963,0,0,1,.1739.96Z" transform="translate(-743.1665 -457.2498)"/><path class="cls-3" d="M966.8908,493.806c-.0244.1118-.05.22-.0781.3238a1.102,1.102,0,0,0-.042.288.3063.3063,0,0,0,.0606.2042.2854.2854,0,0,0,.2275.0717.9821.9821,0,0,0,.24-.03,1.6524,1.6524,0,0,1,.24-.0419l-.2168.9838q-.2637.06-.5274.1138a2.6887,2.6887,0,0,1-.54.0542.8029.8029,0,0,1-.5762-.2158.8345.8345,0,0,1-.2519-.5762,2.5032,2.5032,0,0,1-.96.6,3.4142,3.4142,0,0,1-1.1279.1919,2.4671,2.4671,0,0,1-.7324-.1079,2.014,2.014,0,0,1-.6182-.312,1.4548,1.4548,0,0,1-.4258-.5161,1.5952,1.5952,0,0,1-.1562-.72,1.9664,1.9664,0,0,1,.2168-.9663,1.8938,1.8938,0,0,1,.5752-.6421,2.5294,2.5294,0,0,1,.8281-.3715,5.4914,5.4914,0,0,1,.9844-.1563q.6957-.0476,1.3681-.1079a.7136.7136,0,0,0,.5459-.2461.9.9,0,0,0,.1738-.57.5951.5951,0,0,0-.3115-.5943,1.6821,1.6821,0,0,0-.7324-.15,2.2817,2.2817,0,0,0-.99.1978,1.0853,1.0853,0,0,0-.5577.7744h-1.2958a2.5181,2.5181,0,0,1,.372-.9663,2.2281,2.2281,0,0,1,.6475-.6357,2.5722,2.5722,0,0,1,.87-.3482,5.0558,5.0558,0,0,1,1.0381-.102,4.2271,4.2271,0,0,1,1.3144.1621,1.7578,1.7578,0,0,1,.6954.39.9466.9466,0,0,1,.2705.4736,2.2988,2.2988,0,0,1,.0478.4141,4.2769,4.2769,0,0,1-.12.936Zm-4.1162.0957a.653.653,0,0,0,.1026.378.7679.7679,0,0,0,.2578.24,1.1923,1.1923,0,0,0,.3476.1318,1.766,1.766,0,0,0,.3838.042,1.9071,1.9071,0,0,0,.8467-.1679,1.5779,1.5779,0,0,0,.5635-.4561,2.2076,2.2076,0,0,0,.3486-.6777,5.6409,5.6409,0,0,0,.1973-.834l-.0235-.0239a.8062.8062,0,0,1-.3837.2036,3.2879,3.2879,0,0,1-.4688.084c-.1914.0161-.4141.0322-.666.0483a3.0609,3.0609,0,0,0-.708.126,1.4872,1.4872,0,0,0-.5635.312A.7562.7562,0,0,0,962.7746,493.9017Z" transform="translate(-743.1665 -457.2498)"/></svg>