<svg id="Layer_1" data-name="Layer 1" xmlns="http://www.w3.org/2000/svg" viewBox="0 0 413.259 156.2301"><defs><style>.cls-1{fill:#fff;stroke:#231f20;}.cls-1,.cls-2{stroke-miterlimit:10;}.cls-2{fill:none;stroke:#231fda;}.cls-3{fill:#231fda;}</style></defs><title>step2</title><rect class="cls-1" x="0.5" y="58.748" width="134.6053" height="43.1579"/><path d="M760.2883,500.2347a2.2943,2.2943,0,0,0-.5088-.5737,2.3758,2.3758,0,0,0-1.4961-.5229,2.6591,2.6591,0,0,0-1.3076.2978,2.4764,2.4764,0,0,0-.8721.7988,3.5054,3.5054,0,0,0-.4863,1.1407,5.6629,5.6629,0,0,0-.1528,1.3222,5.259,5.259,0,0,0,.1528,1.271,3.4432,3.4432,0,0,0,.4863,1.1123,2.4969,2.4969,0,0,0,.8721.7911,2.6536,2.6536,0,0,0,1.3076.2978,2.1111,2.1111,0,0,0,1.6343-.6387,2.9583,2.9583,0,0,0,.7192-1.6855h2.2085a5.2648,5.2648,0,0,1-.4507,1.7578,4.2093,4.2093,0,0,1-.9585,1.3369,4.0887,4.0887,0,0,1-1.395.8428,5.1193,5.1193,0,0,1-1.7578.29,5.3137,5.3137,0,0,1-2.143-.414,4.5809,4.5809,0,0,1-1.6055-1.1407,5.0315,5.0315,0,0,1-1.0025-1.707,6.2643,6.2643,0,0,1-.3486-2.1138,6.4847,6.4847,0,0,1,.3486-2.1577,5.1847,5.1847,0,0,1,1.0025-1.7363,4.5886,4.5886,0,0,1,1.6055-1.1621,5.56,5.56,0,0,1,3.7626-.1743,4.3764,4.3764,0,0,1,1.3658.7192,3.8947,3.8947,0,0,1,.9956,1.1694,4.186,4.186,0,0,1,.4936,1.5982H760.55A1.8677,1.8677,0,0,0,760.2883,500.2347Z" transform="translate(-734.8288 -422.7822)"/><path d="M766.39,506.0389a2.113,2.113,0,0,0,2.4116.1387,1.2982,1.2982,0,0,0,.5522-.6611H771.17a3.45,3.45,0,0,1-1.3369,1.9326,3.94,3.94,0,0,1-2.1792.5811,4.2994,4.2994,0,0,1-1.5981-.2832,3.33,3.33,0,0,1-1.2056-.8067,3.6266,3.6266,0,0,1-.7632-1.25,4.567,4.567,0,0,1-.2685-1.5976,4.3821,4.3821,0,0,1,.2759-1.5694,3.6314,3.6314,0,0,1,1.998-2.0923,3.8839,3.8839,0,0,1,1.5615-.3051,3.5709,3.5709,0,0,1,1.6709.3706,3.3349,3.3349,0,0,1,1.17.9951,4.0917,4.0917,0,0,1,.6611,1.4243,5.3035,5.3035,0,0,1,.1455,1.6709h-5.4194A2.0814,2.0814,0,0,0,766.39,506.0389Zm2.3315-3.9516a1.45,1.45,0,0,0-1.126-.4068,1.7959,1.7959,0,0,0-.8208.167,1.5649,1.5649,0,0,0-.5229.4141,1.509,1.509,0,0,0-.2759.5234,2.3376,2.3376,0,0,0-.0947.4942h3.3564A2.388,2.388,0,0,0,768.7219,502.0873Z" transform="translate(-734.8288 -422.7822)"/><path d="M774.6423,497.4672v10.3735h-2.063V497.4672Z" transform="translate(-734.8288 -422.7822)"/><path d="M778.3908,497.4672v10.3735h-2.0629V497.4672Z" transform="translate(-734.8288 -422.7822)"/><path d="M781.98,505.2841a1.6365,1.6365,0,0,0,.501.5879,2.178,2.178,0,0,0,.7339.3349,3.4808,3.4808,0,0,0,.8716.1084,4.5,4.5,0,0,0,.6538-.0508,2.2882,2.2882,0,0,0,.6538-.1963,1.42,1.42,0,0,0,.5088-.3994,1.0028,1.0028,0,0,0,.2031-.6465.91.91,0,0,0-.2686-.6826,2.13,2.13,0,0,0-.7046-.4365,7.0224,7.0224,0,0,0-.9882-.3047q-.5523-.13-1.1187-.291a9.8427,9.8427,0,0,1-1.1333-.3555,3.8962,3.8962,0,0,1-.9878-.5449,2.5676,2.5676,0,0,1-.7046-.8354,2.5325,2.5325,0,0,1-.269-1.2134,2.7149,2.7149,0,0,1,.3413-1.3872,3.0913,3.0913,0,0,1,.8935-.981,3.9023,3.9023,0,0,1,1.25-.581,5.3158,5.3158,0,0,1,1.395-.189,6.5927,6.5927,0,0,1,1.5615.1816,3.9018,3.9018,0,0,1,1.33.5884,2.9863,2.9863,0,0,1,.9228,1.0391,3.19,3.19,0,0,1,.3413,1.5327H785.757a1.8354,1.8354,0,0,0-.1962-.77,1.285,1.285,0,0,0-.4429-.4795,1.8759,1.8759,0,0,0-.6323-.2471,3.8966,3.8966,0,0,0-.7769-.0727,2.6769,2.6769,0,0,0-.5522.0581,1.4886,1.4886,0,0,0-.5015.2036,1.2559,1.2559,0,0,0-.37.3633.9711.9711,0,0,0-.1455.5517.9309.9309,0,0,0,.1162.4942,1.0379,1.0379,0,0,0,.4575.3486,5.7967,5.7967,0,0,0,.9443.32q.6028.16,1.5767.4068.29.0577.8062.21a3.891,3.891,0,0,1,1.0244.4868,3.1035,3.1035,0,0,1,.8789.8941,2.542,2.542,0,0,1,.3706,1.4306,3.1757,3.1757,0,0,1-.2759,1.3223,2.88,2.88,0,0,1-.8213,1.0537,3.9464,3.9464,0,0,1-1.3511.69,6.3765,6.3765,0,0,1-1.8667.247,6.59,6.59,0,0,1-1.6635-.21,4.1984,4.1984,0,0,1-1.4239-.6612,3.27,3.27,0,0,1-.9809-1.1484,3.4242,3.4242,0,0,1-.3487-1.6563h2.2085A1.904,1.904,0,0,0,781.98,505.2841Z" transform="translate(-734.8288 -422.7822)"/><path d="M789.5051,499.1669v-1.7h2.063v1.7Zm2.063,1.1626v7.5112h-2.063V500.33Z" transform="translate(-734.8288 -422.7822)"/><path d="M795.2,500.33v1.0171h.0288a2.9353,2.9353,0,0,1,.981-.9009,2.6576,2.6576,0,0,1,1.3149-.32,3.0322,3.0322,0,0,1,1.3.2758,1.8293,1.8293,0,0,1,.8936.9737,3.2012,3.2012,0,0,1,.9077-.8716,2.4139,2.4139,0,0,1,1.3589-.3779,4.0138,4.0138,0,0,1,1.104.1455,2.2231,2.2231,0,0,1,.8716.4648,2.131,2.131,0,0,1,.5668.8355,3.3941,3.3941,0,0,1,.2032,1.2426v5.0264h-2.063v-4.2568q0-.378-.0288-.7119a1.51,1.51,0,0,0-.16-.5811.9689.9689,0,0,0-.3847-.3926,1.3975,1.3975,0,0,0-.6905-.145,1.3206,1.3206,0,0,0-.7046.167,1.216,1.216,0,0,0-.4214.4355,1.7524,1.7524,0,0,0-.2031.6109,4.6312,4.6312,0,0,0-.0508.69v4.1836h-2.0634v-4.2129q0-.3339-.0142-.6611a1.8609,1.8609,0,0,0-.1235-.6035.93.93,0,0,0-.3633-.4429,1.3713,1.3713,0,0,0-.7485-.167,1.5306,1.5306,0,0,0-.3848.0654,1.2815,1.2815,0,0,0-.4649.2466,1.4465,1.4465,0,0,0-.3852.5234,2.1239,2.1239,0,0,0-.16.8936v4.3584h-2.063V500.33Z" transform="translate(-734.8288 -422.7822)"/><path d="M811.4436,507.8407v-1.0459H811.4a2.3216,2.3216,0,0,1-1.0171.9443,3.0075,3.0075,0,0,1-1.2788.2911,3.6041,3.6041,0,0,1-1.3584-.2188,1.9531,1.9531,0,0,1-.8354-.6172,2.4118,2.4118,0,0,1-.4283-.9736,6.0314,6.0314,0,0,1-.1235-1.27V500.33h2.063v4.2426a2.6329,2.6329,0,0,0,.29,1.3877,1.1265,1.1265,0,0,0,1.0318.4571,1.43,1.43,0,0,0,1.22-.501,2.786,2.786,0,0,0,.3779-1.6494V500.33h2.063v7.5112Z" transform="translate(-734.8288 -422.7822)"/><path d="M817.0949,497.4672v10.3735H815.032V497.4672Z" transform="translate(-734.8288 -422.7822)"/><path d="M818.635,502.64a2.4017,2.4017,0,0,1,.3633-1.206,2.4721,2.4721,0,0,1,.8134-.77,3.5453,3.5453,0,0,1,1.1119-.4141,6.3426,6.3426,0,0,1,1.2421-.1235,8.4268,8.4268,0,0,1,1.1475.08,3.5136,3.5136,0,0,1,1.06.312,2.0877,2.0877,0,0,1,.7847.647,1.8046,1.8046,0,0,1,.3052,1.0967V506.17a7.8651,7.8651,0,0,0,.0581.9736,1.7439,1.7439,0,0,0,.2036.6973H823.633a2.8472,2.8472,0,0,1-.0942-.3555,3.0941,3.0941,0,0,1-.0513-.3711,2.6721,2.6721,0,0,1-1.1621.712,4.6645,4.6645,0,0,1-1.3657.2041,3.7011,3.7011,0,0,1-1.0025-.1309,2.2989,2.2989,0,0,1-.8134-.4072,1.8881,1.8881,0,0,1-.545-.6973,2.3551,2.3551,0,0,1-.1962-1.002,2.1939,2.1939,0,0,1,.2251-1.0537,1.8814,1.8814,0,0,1,.5815-.6611,2.5813,2.5813,0,0,1,.8135-.37,8.61,8.61,0,0,1,.9223-.1963q.4651-.0732.9156-.1162a5.6139,5.6139,0,0,0,.7988-.1309,1.3876,1.3876,0,0,0,.5522-.2549.5568.5568,0,0,0,.189-.4863,1.0982,1.0982,0,0,0-.1089-.53.8052.8052,0,0,0-.29-.3051,1.1482,1.1482,0,0,0-.4214-.1455,3.4847,3.4847,0,0,0-.5161-.0362,1.5644,1.5644,0,0,0-.9585.2613,1.1677,1.1677,0,0,0-.4072.872Zm4.7656,1.5254a.91.91,0,0,1-.3271.1817,3.3,3.3,0,0,1-.4214.1093c-.15.0293-.3072.0528-.4722.0723s-.3291.0439-.4937.0732a3.5119,3.5119,0,0,0-.4575.1163,1.3387,1.3387,0,0,0-.3925.1953.9431.9431,0,0,0-.2686.3125,1.0046,1.0046,0,0,0-.1021.4795.965.965,0,0,0,.1021.4648.7736.7736,0,0,0,.2759.2979,1.16,1.16,0,0,0,.4067.1533,2.6643,2.6643,0,0,0,.48.0429,1.8215,1.8215,0,0,0,.9443-.2031,1.3625,1.3625,0,0,0,.4942-.4873,1.55,1.55,0,0,0,.1958-.5732,3.9083,3.9083,0,0,0,.0366-.4649Z" transform="translate(-734.8288 -422.7822)"/><path d="M831.1877,500.33v1.38H829.677v3.72a.6981.6981,0,0,0,.8716.8711q.1743,0,.3339-.0147a2.6265,2.6265,0,0,0,.3052-.043v1.5977a4.8794,4.8794,0,0,1-.581.0586q-.32.0147-.6246.0146a6.1,6.1,0,0,1-.9082-.0654,2.1448,2.1448,0,0,1-.7553-.2549,1.3375,1.3375,0,0,1-.5161-.5371,1.9191,1.9191,0,0,1-.189-.915v-4.4321h-1.249v-1.38h1.249v-2.252h2.0635v2.252Z" transform="translate(-734.8288 -422.7822)"/><path d="M832.2336,499.1669v-1.7h2.063v1.7Zm2.063,1.1626v7.5112h-2.063V500.33Z" transform="translate(-734.8288 -422.7822)"/><path d="M835.9675,502.4579a3.4373,3.4373,0,0,1,2.0049-2.0488,4.2974,4.2974,0,0,1,1.5981-.2832,4.3555,4.3555,0,0,1,1.6055.2832,3.42,3.42,0,0,1,2.0122,2.0488,4.6112,4.6112,0,0,1,.2764,1.6348,4.5486,4.5486,0,0,1-.2764,1.6269,3.53,3.53,0,0,1-.7842,1.2422,3.4193,3.4193,0,0,1-1.228.792,4.4591,4.4591,0,0,1-1.6055.2764,4.4,4.4,0,0,1-1.5981-.2764,3.426,3.426,0,0,1-1.22-.792,3.5242,3.5242,0,0,1-.7847-1.2422,4.5487,4.5487,0,0,1-.2759-1.6269A4.6112,4.6112,0,0,1,835.9675,502.4579Zm1.874,2.5137a2.332,2.332,0,0,0,.2979.7695,1.5746,1.5746,0,0,0,.5595.5449,1.7053,1.7053,0,0,0,.8716.2041,1.7458,1.7458,0,0,0,.8789-.2041,1.5568,1.5568,0,0,0,.5669-.5449,2.332,2.332,0,0,0,.2979-.7695,4.3988,4.3988,0,0,0,.0869-.8789,4.521,4.521,0,0,0-.0869-.8868,2.2739,2.2739,0,0,0-.2979-.77,1.6574,1.6574,0,0,0-.5669-.5449,1.7026,1.7026,0,0,0-.8789-.2105,1.5864,1.5864,0,0,0-1.4311.7554,2.2739,2.2739,0,0,0-.2979.77,4.521,4.521,0,0,0-.0869.8868A4.3988,4.3988,0,0,0,837.8415,504.9716Z" transform="translate(-734.8288 -422.7822)"/><path d="M846.7624,500.33v1.0459h.0435a2.3679,2.3679,0,0,1,1.0171-.9517,2.9443,2.9443,0,0,1,1.2783-.2978,3.5076,3.5076,0,0,1,1.3584.2251,2.0122,2.0122,0,0,1,.8354.625,2.4193,2.4193,0,0,1,.4287.9731,6.0729,6.0729,0,0,1,.1236,1.2715v4.62h-2.063v-4.2422a2.637,2.637,0,0,0-.29-1.3877,1.1256,1.1256,0,0,0-1.0318-.4575,1.4285,1.4285,0,0,0-1.22.501,2.7872,2.7872,0,0,0-.3779,1.6489v3.9375h-2.063V500.33Z" transform="translate(-734.8288 -422.7822)"/><rect class="cls-1" x="352.4861" y="58.7479" width="60.2728" height="43.1579"/><path d="M1111.8069,500.2343a2.2852,2.2852,0,0,0-.5088-.5738,2.3736,2.3736,0,0,0-1.4961-.5229,2.66,2.66,0,0,0-1.3076.2978,2.48,2.48,0,0,0-.8721.7989,3.5,3.5,0,0,0-.4863,1.1406,5.6848,5.6848,0,0,0-.1524,1.3222,5.2791,5.2791,0,0,0,.1524,1.2706,3.44,3.44,0,0,0,.4863,1.1123,2.5,2.5,0,0,0,.8721.791,2.655,2.655,0,0,0,1.3076.2978,2.113,2.113,0,0,0,1.6347-.6386,2.955,2.955,0,0,0,.7188-1.6856h2.209a5.2764,5.2764,0,0,1-.4512,1.7578,4.215,4.215,0,0,1-.958,1.3369,4.0855,4.0855,0,0,1-1.3955.8428,5.1132,5.1132,0,0,1-1.7578.29,5.31,5.31,0,0,1-2.1426-.414,4.5782,4.5782,0,0,1-1.6055-1.1406,5.0248,5.0248,0,0,1-1.0029-1.7071,6.2635,6.2635,0,0,1-.3486-2.1133,6.4847,6.4847,0,0,1,.3486-2.1577,5.1772,5.1772,0,0,1,1.0029-1.7363,4.5862,4.5862,0,0,1,1.6055-1.1621,5.56,5.56,0,0,1,3.7627-.1743,4.3667,4.3667,0,0,1,1.3652.7192,3.8889,3.8889,0,0,1,.9961,1.1694,4.1857,4.1857,0,0,1,.4932,1.5982h-2.208A1.8707,1.8707,0,0,0,1111.8069,500.2343Z" transform="translate(-734.8288 -422.7822)"/><path d="M1117.9094,506.038a2.1124,2.1124,0,0,0,2.4111.1386,1.3023,1.3023,0,0,0,.5528-.6611h1.8154a3.4477,3.4477,0,0,1-1.3369,1.9326,3.9383,3.9383,0,0,1-2.1787.5811,4.3,4.3,0,0,1-1.5987-.2832,3.3262,3.3262,0,0,1-1.205-.8067,3.6277,3.6277,0,0,1-.7637-1.25,4.5785,4.5785,0,0,1-.2686-1.5976,4.3671,4.3671,0,0,1,.2764-1.5689,3.6282,3.6282,0,0,1,1.998-2.0923,3.883,3.883,0,0,1,1.5616-.3051,3.5726,3.5726,0,0,1,1.6709.3706,3.3285,3.3285,0,0,1,1.1689.9951,4.081,4.081,0,0,1,.6611,1.4238,5.2862,5.2862,0,0,1,.1455,1.6709h-5.4189A2.0817,2.0817,0,0,0,1117.9094,506.038Zm2.331-3.9512a1.4491,1.4491,0,0,0-1.1259-.4067,1.7934,1.7934,0,0,0-.82.1669,1.57,1.57,0,0,0-.5235.4141,1.5137,1.5137,0,0,0-.2754.523,2.3431,2.3431,0,0,0-.0947.4941h3.3564A2.39,2.39,0,0,0,1120.24,502.0868Z" transform="translate(-734.8288 -422.7822)"/><path d="M1126.1613,497.4667V507.84h-2.0634v-10.373Z" transform="translate(-734.8288 -422.7822)"/><path d="M1129.9094,497.4667V507.84h-2.0625v-10.373Z" transform="translate(-734.8288 -422.7822)"/><rect class="cls-1" x="194.0527" y="58.7485" width="99.486" height="43.1579"/><path d="M947.25,497.4672v8.4555h5.0557v1.918H944.969V497.4672Z" transform="translate(-734.8288 -422.7822)"/><path d="M953.425,499.1669v-1.7h2.0625v1.7Zm2.0625,1.1626v7.5112H953.425V500.33Z" transform="translate(-734.8288 -422.7822)"/><path d="M958.8508,505.9735a1.21,1.21,0,0,0,.3564.3926,1.5439,1.5439,0,0,0,.501.2256,2.3516,2.3516,0,0,0,.5889.0722,2.1807,2.1807,0,0,0,.457-.0507,1.55,1.55,0,0,0,.4365-.16.9919.9919,0,0,0,.3272-.29.7652.7652,0,0,0,.13-.458q0-.4644-.6172-.6973a12.4846,12.4846,0,0,0-1.7217-.4649c-.3-.0673-.5937-.1474-.8789-.2392a3.0137,3.0137,0,0,1-.7627-.3633,1.7533,1.7533,0,0,1-.5371-.5674,1.6037,1.6037,0,0,1-.2041-.8354,2.2628,2.2628,0,0,1,.2832-1.1909,2.09,2.09,0,0,1,.749-.7339,3.2779,3.2779,0,0,1,1.0459-.378,6.4378,6.4378,0,0,1,1.1914-.1088,5.9727,5.9727,0,0,1,1.1836.1162,3.1382,3.1382,0,0,1,1.0244.3925,2.3527,2.3527,0,0,1,.7481.7334,2.4735,2.4735,0,0,1,.3564,1.1553h-1.9619a.9011.9011,0,0,0-.45-.8066,2.0627,2.0627,0,0,0-.959-.2105,3.6787,3.6787,0,0,0-.3779.0215,1.2664,1.2664,0,0,0-.37.0947.7618.7618,0,0,0-.2832.21.5544.5544,0,0,0-.1162.3706.5647.5647,0,0,0,.2031.45,1.5565,1.5565,0,0,0,.53.2837,6.8478,6.8478,0,0,0,.748.1963c.2813.0576.5674.1211.8574.1884a8.9044,8.9044,0,0,1,.8789.2471,2.8967,2.8967,0,0,1,.7627.3858,1.8652,1.8652,0,0,1,.5381.5947,1.7523,1.7523,0,0,1,.2032.88,2.2792,2.2792,0,0,1-1.0752,2.0478,3.1673,3.1673,0,0,1-1.0967.4287,6.4182,6.4182,0,0,1-1.2569.1241,6.24,6.24,0,0,1-1.2783-.1309,3.3685,3.3685,0,0,1-1.1113-.4365,2.4831,2.4831,0,0,1-.8-.8057,2.5183,2.5183,0,0,1-.3408-1.2568h1.9609A1.13,1.13,0,0,0,958.8508,505.9735Z" transform="translate(-734.8288 -422.7822)"/><path d="M969.0432,500.33v1.38h-1.5108v3.72a.6977.6977,0,0,0,.8711.8711q.1743,0,.334-.0147a2.6354,2.6354,0,0,0,.3057-.043v1.5977a4.89,4.89,0,0,1-.5811.0586q-.3207.0147-.625.0146a6.11,6.11,0,0,1-.9082-.0654,2.1468,2.1468,0,0,1-.7549-.2549,1.3367,1.3367,0,0,1-.5166-.5371,1.9206,1.9206,0,0,1-.1884-.915v-4.4321H964.22v-1.38h1.2491v-2.252h2.0634v2.252Z" transform="translate(-734.8288 -422.7822)"/><path d="M971.9631,504.1649l5.332,2.1211v1.6563l-7.3808-2.92v-1.7148l7.3808-2.9346v1.6709Z" transform="translate(-734.8288 -422.7822)"/><path d="M985.62,500.2347a2.3022,2.3022,0,0,0-.5088-.5737,2.35,2.35,0,0,0-.69-.3852,2.3756,2.3756,0,0,0-.8057-.1377,2.6583,2.6583,0,0,0-1.3076.2978,2.471,2.471,0,0,0-.872.7988,3.5034,3.5034,0,0,0-.4864,1.1407,5.6365,5.6365,0,0,0-.1533,1.3222,5.2345,5.2345,0,0,0,.1533,1.271,3.4412,3.4412,0,0,0,.4864,1.1123,2.4914,2.4914,0,0,0,.872.7911,2.6528,2.6528,0,0,0,1.3076.2978,2.1093,2.1093,0,0,0,1.6338-.6387,2.9621,2.9621,0,0,0,.72-1.6855h2.208a5.2527,5.2527,0,0,1-.45,1.7578,4.2044,4.2044,0,0,1-.959,1.3369,4.0922,4.0922,0,0,1-1.3945.8428,5.1239,5.1239,0,0,1-1.7579.29,5.3165,5.3165,0,0,1-2.1435-.414,4.5854,4.5854,0,0,1-1.6055-1.1407,5.0383,5.0383,0,0,1-1.0019-1.707,6.2619,6.2619,0,0,1-.3487-2.1138,6.4822,6.4822,0,0,1,.3487-2.1577,5.1919,5.1919,0,0,1,1.0019-1.7363,4.5932,4.5932,0,0,1,1.6055-1.1621,5.56,5.56,0,0,1,3.7627-.1743,4.3829,4.3829,0,0,1,1.3662.7192,3.8989,3.8989,0,0,1,.9951,1.1694,4.1881,4.1881,0,0,1,.4942,1.5982h-2.209A1.8688,1.8688,0,0,0,985.62,500.2347Z" transform="translate(-734.8288 -422.7822)"/><path d="M991.7229,506.0389a2.1122,2.1122,0,0,0,2.4111.1387,1.3015,1.3015,0,0,0,.5527-.6611h1.8155a3.4487,3.4487,0,0,1-1.3369,1.9326,3.9384,3.9384,0,0,1-2.1788.5811,4.3021,4.3021,0,0,1-1.5986-.2832,3.3279,3.3279,0,0,1-1.2051-.8067,3.6275,3.6275,0,0,1-.7636-1.25,4.5762,4.5762,0,0,1-.2686-1.5976,4.3714,4.3714,0,0,1,.2764-1.5694,3.6282,3.6282,0,0,1,1.998-2.0923,3.8829,3.8829,0,0,1,1.5615-.3051,3.5723,3.5723,0,0,1,1.6709.3706,3.3288,3.3288,0,0,1,1.169.9951,4.081,4.081,0,0,1,.6611,1.4243,5.286,5.286,0,0,1,.1455,1.6709h-5.4189A2.0814,2.0814,0,0,0,991.7229,506.0389Zm2.331-3.9516a1.4492,1.4492,0,0,0-1.126-.4068,1.7937,1.7937,0,0,0-.82.167,1.569,1.569,0,0,0-.5234.4141,1.5076,1.5076,0,0,0-.2754.5234,2.3376,2.3376,0,0,0-.0947.4942h3.3564A2.3916,2.3916,0,0,0,994.0539,502.0873Z" transform="translate(-734.8288 -422.7822)"/><path d="M999.9748,497.4672v10.3735h-2.0635V497.4672Z" transform="translate(-734.8288 -422.7822)"/><path d="M1003.7229,497.4672v10.3735h-2.0635V497.4672Z" transform="translate(-734.8288 -422.7822)"/><path d="M1010.5656,504.1649l-5.332-2.1211v-1.6709l7.3809,2.9346v1.7148l-7.3809,2.92V506.286Z" transform="translate(-734.8288 -422.7822)"/><line class="cls-2" x1="135.1054" y1="80.3269" x2="185.0982" y2="80.3269"/><polygon class="cls-3" points="180.885 85.882 183.245 80.327 180.885 74.772 194.053 80.327 180.885 85.882"/><path class="cls-3" d="M882.2556,486.2391h1.3681l-.6718,3.24h.0239a2.596,2.596,0,0,1,.9-.7559,2.4374,2.4374,0,0,1,1.14-.2881,1.8616,1.8616,0,0,1,1.3736.4439,1.6357,1.6357,0,0,1,.4385,1.2q0,.1685-.0118.3838a2.5547,2.5547,0,0,1-.0488.3842l-.8271,3.96H884.572l.792-3.8281c.0239-.1035.0459-.2041.0659-.3a1.39,1.39,0,0,0,.03-.2759c0-.0483-.002-.1221-.0059-.2222a.674.674,0,0,0-.09-.3.6918.6918,0,0,0-.2822-.2583,1.2166,1.2166,0,0,0-.57-.1079,1.49,1.49,0,0,0-.726.1738,2.4987,2.4987,0,0,0-.57.4263,2.2017,2.2017,0,0,0-.4135.5938,3.24,3.24,0,0,0-.2583.7382l-.6958,3.36H880.48Z" transform="translate(-734.8288 -422.7822)"/><path class="cls-3" d="M892.8874,493.0072c-.0244.1118-.05.22-.0781.3237a1.1021,1.1021,0,0,0-.042.2881.3053.3053,0,0,0,.0606.2041.285.285,0,0,0,.2275.0718.9876.9876,0,0,0,.24-.03,1.6527,1.6527,0,0,1,.24-.042l-.2168.9839q-.2637.06-.5274.1138a2.6887,2.6887,0,0,1-.54.0542.8029.8029,0,0,1-.5762-.2158.8345.8345,0,0,1-.2519-.5762,2.5032,2.5032,0,0,1-.96.6,3.4142,3.4142,0,0,1-1.1279.1919,2.4715,2.4715,0,0,1-.7325-.1079,2.0134,2.0134,0,0,1-.6181-.312,1.4543,1.4543,0,0,1-.4258-.5162,1.5948,1.5948,0,0,1-.1563-.72,1.9672,1.9672,0,0,1,.2168-.9663,1.8949,1.8949,0,0,1,.5752-.6421,2.53,2.53,0,0,1,.8282-.3716,5.5007,5.5007,0,0,1,.9843-.1562q.6958-.0477,1.3682-.1079a.7141.7141,0,0,0,.5459-.2461.9008.9008,0,0,0,.1738-.57.5953.5953,0,0,0-.3115-.5943,1.6821,1.6821,0,0,0-.7324-.15,2.281,2.281,0,0,0-.99.1978,1.0852,1.0852,0,0,0-.5576.7744h-1.2959a2.5175,2.5175,0,0,1,.3721-.9663,2.23,2.23,0,0,1,.6475-.6358,2.5741,2.5741,0,0,1,.87-.3481,5.0556,5.0556,0,0,1,1.0381-.1021,4.2276,4.2276,0,0,1,1.3144.1621,1.7566,1.7566,0,0,1,.6953.39.9443.9443,0,0,1,.27.4736,2.291,2.291,0,0,1,.0479.4141,4.2769,4.2769,0,0,1-.12.936Zm-4.1162.0957a.6534.6534,0,0,0,.1025.3779.7694.7694,0,0,0,.2579.24,1.1952,1.1952,0,0,0,.3476.1318,1.7715,1.7715,0,0,0,.3838.042,1.9071,1.9071,0,0,0,.8467-.168,1.5766,1.5766,0,0,0,.5635-.456,2.207,2.207,0,0,0,.3486-.6778,5.6365,5.6365,0,0,0,.1973-.8339l-.0235-.024a.8053.8053,0,0,1-.3838.2036,3.2564,3.2564,0,0,1-.4687.084c-.1914.0161-.4141.0323-.666.0484a3.0662,3.0662,0,0,0-.708.1259,1.4873,1.4873,0,0,0-.5635.3121A.7557.7557,0,0,0,888.7712,493.1029Z" transform="translate(-734.8288 -422.7822)"/><path class="cls-3" d="M898.4314,490.4149a.7742.7742,0,0,0-.3545-.6841,1.65,1.65,0,0,0-.8936-.2158,2.047,2.047,0,0,0-.39.0362,1.02,1.02,0,0,0-.336.1259.6853.6853,0,0,0-.24.24.72.72,0,0,0-.09.3779.4257.4257,0,0,0,.1621.3481,1.53,1.53,0,0,0,.4257.2339q.2637.1026.5879.1924t.6475.21q.2769.1077.54.24a1.8553,1.8553,0,0,1,.462.3242,1.4683,1.4683,0,0,1,.3183.4561,1.5256,1.5256,0,0,1,.12.6357,1.7075,1.7075,0,0,1-.24.9239,2.0593,2.0593,0,0,1-.624.6362,2.6855,2.6855,0,0,1-.8819.3662,4.4938,4.4938,0,0,1-1.0019.1138,4.7278,4.7278,0,0,1-1.0078-.1021,2.21,2.21,0,0,1-.8164-.3481,1.7207,1.7207,0,0,1-.5518-.66,2.4823,2.4823,0,0,1-.2158-1.05h1.2959a.8578.8578,0,0,0,.3721.834,1.8543,1.8543,0,0,0,.996.2461,2.4143,2.4143,0,0,0,.4434-.042,1.5757,1.5757,0,0,0,.4209-.1377.8734.8734,0,0,0,.3174-.27.7284.7284,0,0,0,.126-.438.5075.5075,0,0,0-.1739-.396,1.5791,1.5791,0,0,0-.4443-.27,5.1382,5.1382,0,0,0-.6113-.21q-.3427-.0958-.666-.2163a3.5392,3.5392,0,0,1-.5225-.228,1.94,1.94,0,0,1-.4375-.3179,1.3284,1.3284,0,0,1-.3008-.438,1.5283,1.5283,0,0,1-.1074-.6,1.608,1.608,0,0,1,.2217-.8637,1.8194,1.8194,0,0,1,.582-.5884,2.6636,2.6636,0,0,1,.8164-.336,4.0559,4.0559,0,0,1,.9356-.1079,4.8,4.8,0,0,1,.9482.09,2.0665,2.0665,0,0,1,.7734.3183,1.5424,1.5424,0,0,1,.5166.6119,2.0961,2.0961,0,0,1,.1739.96Z" transform="translate(-734.8288 -422.7822)"/><path class="cls-3" d="M908.8952,493.0072c-.0244.1118-.05.22-.0781.3237a1.1021,1.1021,0,0,0-.042.2881.3053.3053,0,0,0,.0606.2041.285.285,0,0,0,.2275.0718.9869.9869,0,0,0,.24-.03,1.6527,1.6527,0,0,1,.24-.042l-.2168.9839q-.2637.06-.5274.1138a2.6887,2.6887,0,0,1-.54.0542.8029.8029,0,0,1-.5762-.2158.8345.8345,0,0,1-.2519-.5762,2.5032,2.5032,0,0,1-.96.6,3.4142,3.4142,0,0,1-1.1279.1919,2.47,2.47,0,0,1-.7324-.1079,2.014,2.014,0,0,1-.6182-.312,1.4543,1.4543,0,0,1-.4258-.5162,1.5948,1.5948,0,0,1-.1562-.72,1.9661,1.9661,0,0,1,.2168-.9663,1.8929,1.8929,0,0,1,.5752-.6421,2.53,2.53,0,0,1,.8281-.3716,5.5,5.5,0,0,1,.9844-.1562q.6957-.0477,1.3681-.1079a.7139.7139,0,0,0,.5459-.2461.9008.9008,0,0,0,.1738-.57.5953.5953,0,0,0-.3115-.5943,1.6821,1.6821,0,0,0-.7324-.15,2.28,2.28,0,0,0-.99.1978,1.085,1.085,0,0,0-.5577.7744h-1.2959a2.5191,2.5191,0,0,1,.3721-.9663,2.23,2.23,0,0,1,.6475-.6358,2.5741,2.5741,0,0,1,.87-.3481,5.0556,5.0556,0,0,1,1.0381-.1021,4.2271,4.2271,0,0,1,1.3144.1621,1.7566,1.7566,0,0,1,.6953.39.9453.9453,0,0,1,.2706.4736,2.2988,2.2988,0,0,1,.0478.4141,4.2769,4.2769,0,0,1-.12.936Zm-4.1162.0957a.6527.6527,0,0,0,.1026.3779.7682.7682,0,0,0,.2578.24,1.1952,1.1952,0,0,0,.3476.1318,1.7722,1.7722,0,0,0,.3838.042,1.9071,1.9071,0,0,0,.8467-.168,1.5766,1.5766,0,0,0,.5635-.456,2.207,2.207,0,0,0,.3486-.6778,5.6365,5.6365,0,0,0,.1973-.8339l-.0235-.024a.8053.8053,0,0,1-.3838.2036,3.2564,3.2564,0,0,1-.4687.084c-.1914.0161-.4141.0323-.666.0484a3.0662,3.0662,0,0,0-.708.1259,1.4873,1.4873,0,0,0-.5635.3121A.7557.7557,0,0,0,904.779,493.1029Z" transform="translate(-734.8288 -422.7822)"/><path class="cls-2" d="M1028.3676,503.1091H1078.36" transform="translate(-734.8288 -422.7822)"/><polygon class="cls-3" points="339.319 85.882 341.679 80.327 339.319 74.772 352.486 80.327 339.319 85.882"/><rect class="cls-1" x="352.4861" y="0.5" width="60.2728" height="43.1579"/><path d="M1111.8069,441.9862a2.283,2.283,0,0,0-.5088-.5737,2.3729,2.3729,0,0,0-1.4961-.523,2.66,2.66,0,0,0-1.3076.2979,2.4789,2.4789,0,0,0-.8721.7988,3.5015,3.5015,0,0,0-.4863,1.1406,5.6851,5.6851,0,0,0-.1524,1.3223,5.2854,5.2854,0,0,0,.1524,1.271,3.4324,3.4324,0,0,0,.4863,1.1118,2.5005,2.5005,0,0,0,.8721.7915,2.66,2.66,0,0,0,1.3076.2979,2.1113,2.1113,0,0,0,1.6347-.6392,2.952,2.952,0,0,0,.7188-1.6855h2.209a5.2831,5.2831,0,0,1-.4512,1.7583,4.2151,4.2151,0,0,1-.958,1.3364,4.0793,4.0793,0,0,1-1.3955.8428,5.1037,5.1037,0,0,1-1.7578.29,5.3185,5.3185,0,0,1-2.1426-.4141,4.5833,4.5833,0,0,1-1.6055-1.1406,5.0339,5.0339,0,0,1-1.0029-1.707,6.2664,6.2664,0,0,1-.3486-2.1138,6.4847,6.4847,0,0,1,.3486-2.1577,5.1772,5.1772,0,0,1,1.0029-1.7363,4.5865,4.5865,0,0,1,1.6055-1.1622,5.5619,5.5619,0,0,1,3.7627-.1743,4.367,4.367,0,0,1,1.3652.7193,3.8877,3.8877,0,0,1,.9961,1.1694,4.1852,4.1852,0,0,1,.4932,1.5981h-2.208A1.8713,1.8713,0,0,0,1111.8069,441.9862Z" transform="translate(-734.8288 -422.7822)"/><path d="M1117.9094,447.79a2.1132,2.1132,0,0,0,2.4111.1382,1.3023,1.3023,0,0,0,.5528-.6611h1.8154a3.4463,3.4463,0,0,1-1.3369,1.9326,3.9341,3.9341,0,0,1-2.1787.581,4.3,4.3,0,0,1-1.5987-.2832,3.32,3.32,0,0,1-1.205-.8066,3.6255,3.6255,0,0,1-.7637-1.25,4.5835,4.5835,0,0,1-.2686-1.5982,4.3685,4.3685,0,0,1,.2764-1.5688,3.6274,3.6274,0,0,1,1.998-2.0923,3.883,3.883,0,0,1,1.5616-.3052,3.5738,3.5738,0,0,1,1.6709.3706,3.33,3.33,0,0,1,1.1689.9951,4.0814,4.0814,0,0,1,.6611,1.4239,5.2873,5.2873,0,0,1,.1455,1.6709h-5.4189A2.082,2.082,0,0,0,1117.9094,447.79Zm2.331-3.9517a1.4494,1.4494,0,0,0-1.1259-.4067,1.7934,1.7934,0,0,0-.82.167,1.5672,1.5672,0,0,0-.5235.4141,1.5124,1.5124,0,0,0-.2754.5229,2.3487,2.3487,0,0,0-.0947.4942h3.3564A2.3922,2.3922,0,0,0,1120.24,443.8387Z" transform="translate(-734.8288 -422.7822)"/><path d="M1126.1613,439.2186v10.3736h-2.0634V439.2186Z" transform="translate(-734.8288 -422.7822)"/><path d="M1129.9094,439.2186v10.3736h-2.0625V439.2186Z" transform="translate(-734.8288 -422.7822)"/><path class="cls-2" d="M1028.3676,503.1091c9.1322,0,25.5943-46.8615,50.1587-56.52" transform="translate(-734.8288 -422.7822)"/><polygon class="cls-3" points="340.88 30.417 341.948 24.477 338.414 19.585 352.486 22.079 340.88 30.417"/><rect class="cls-1" x="352.4861" y="112.5722" width="60.2728" height="43.1579"/><path d="M1111.8069,554.0585a2.2938,2.2938,0,0,0-.5088-.5742,2.3764,2.3764,0,0,0-1.4961-.5225,2.655,2.655,0,0,0-1.3076.2978,2.4755,2.4755,0,0,0-.8721.7989,3.4914,3.4914,0,0,0-.4863,1.1406,5.6819,5.6819,0,0,0-.1524,1.3223,5.2788,5.2788,0,0,0,.1524,1.2705,3.44,3.44,0,0,0,.4863,1.1123,2.4992,2.4992,0,0,0,.8721.791,2.655,2.655,0,0,0,1.3076.2978,2.1127,2.1127,0,0,0,1.6347-.6386,2.955,2.955,0,0,0,.7188-1.6856h2.209a5.2764,5.2764,0,0,1-.4512,1.7578,4.2166,4.2166,0,0,1-.958,1.337,4.0869,4.0869,0,0,1-1.3955.8427,5.1132,5.1132,0,0,1-1.7578.29,5.31,5.31,0,0,1-2.1426-.4141,4.577,4.577,0,0,1-1.6055-1.1406,5.0248,5.0248,0,0,1-1.0029-1.7071,6.2633,6.2633,0,0,1-.3486-2.1132,6.4873,6.4873,0,0,1,.3486-2.1582,5.1787,5.1787,0,0,1,1.0029-1.7364,4.5938,4.5938,0,0,1,1.6055-1.1621,5.5637,5.5637,0,0,1,3.7627-.1738,4.3677,4.3677,0,0,1,1.3652.7187,3.8962,3.8962,0,0,1,.9961,1.17,4.1821,4.1821,0,0,1,.4932,1.5976h-2.208A1.8684,1.8684,0,0,0,1111.8069,554.0585Z" transform="translate(-734.8288 -422.7822)"/><path d="M1117.9094,559.8622a2.1122,2.1122,0,0,0,2.4111.1387,1.3029,1.3029,0,0,0,.5528-.6612h1.8154a3.4477,3.4477,0,0,1-1.3369,1.9326,3.9375,3.9375,0,0,1-2.1787.5811,4.3,4.3,0,0,1-1.5987-.2832,3.3273,3.3273,0,0,1-1.205-.8066,3.63,3.63,0,0,1-.7637-1.25,4.5787,4.5787,0,0,1-.2686-1.5977,4.3708,4.3708,0,0,1,.2764-1.5693,3.6246,3.6246,0,0,1,1.998-2.0918,3.8747,3.8747,0,0,1,1.5616-.3057,3.5727,3.5727,0,0,1,1.6709.3711,3.3244,3.3244,0,0,1,1.1689.9951,4.0726,4.0726,0,0,1,.6611,1.4238,5.2865,5.2865,0,0,1,.1455,1.6709h-5.4189A2.0817,2.0817,0,0,0,1117.9094,559.8622Zm2.331-3.9512a1.4475,1.4475,0,0,0-1.1259-.4072,1.7934,1.7934,0,0,0-.82.167,1.5745,1.5745,0,0,0-.5235.414,1.5158,1.5158,0,0,0-.2754.5235,2.3431,2.3431,0,0,0-.0947.4941h3.3564A2.39,2.39,0,0,0,1120.24,555.911Z" transform="translate(-734.8288 -422.7822)"/><path d="M1126.1613,551.2909v10.373h-2.0634v-10.373Z" transform="translate(-734.8288 -422.7822)"/><path d="M1129.9094,551.2909v10.373h-2.0625v-10.373Z" transform="translate(-734.8288 -422.7822)"/><path class="cls-2" d="M1028.3676,503.1091c9.1294,0,25.5842,43.276,50.136,52.2191" transform="translate(-734.8288 -422.7822)"/><polygon class="cls-3" points="338.456 136.869 341.911 131.921 340.748 125.999 352.486 134.151 338.456 136.869"/></svg>